<svg width="25" height="30" viewBox="0 0 25 30" fill="none" xmlns="http://www.w3.org/2000/svg">
<path d="M15.895 30C12.091 30 8.28696 30 4.48292 30C4.39647 29.9135 4.31001 29.8271 4.22356 29.8271C2.14863 29.2219 0.592435 27.147 0.592435 24.9856C0.592435 19.9712 0.592435 14.8703 0.592435 9.85591C0.592435 9.59654 0.50598 9.33717 0.419524 9.16426C-0.445029 7.43516 0.073703 5.36023 1.54344 4.14986C2.408 3.45821 3.44546 3.19885 4.56938 3.2853C4.65584 3.2853 4.82875 3.19885 4.9152 3.11239C6.03912 1.46974 7.50886 0.864553 9.41088 1.29683C9.58379 1.29683 9.7567 1.29683 9.92961 1.12392C10.4483 0.605187 11.0535 0.345821 11.7452 0.172911C11.8316 0.172911 11.9181 0.0864553 12.0045 0C12.5233 0 12.9555 0 13.4743 0C13.5607 0.0864553 13.6472 0.0864553 13.7336 0.172911C15.2034 0.605187 16.1544 1.46974 16.6731 2.93948C16.7596 3.19885 16.9325 3.37176 17.1919 3.45821C19.7855 4.0634 21.0823 6.91643 19.9584 9.33717C19.7855 9.76945 19.7855 10.1153 19.7855 10.5476C20.1313 10.5476 20.3907 10.5476 20.7365 10.5476C22.6385 10.5476 24.1083 12.0173 24.1083 13.9193C24.1083 16.6859 24.1083 19.5389 24.1083 22.3055C24.1083 23.7752 23.1573 25.1585 21.774 25.5043C21.2553 25.6772 20.6501 25.6772 20.0449 25.6772C19.7855 25.6772 19.6991 25.7637 19.6126 26.0231C19.1803 28.0115 17.97 29.3084 16.0679 29.9135C16.0679 29.8271 15.9815 29.9135 15.895 30ZM2.408 11.0663C2.408 11.2392 2.408 11.4121 2.408 11.4986C2.408 14.1787 2.408 16.7723 2.408 19.4524C2.408 21.3545 2.408 23.3429 2.408 25.245C2.408 26.8876 3.96419 28.2709 5.52039 28.2709C8.63278 28.2709 11.6587 28.2709 14.7711 28.2709C14.944 28.2709 15.1169 28.2709 15.2898 28.1844C17.0189 27.7522 17.97 26.4553 17.97 24.7262C17.97 20.317 17.97 15.8213 17.97 11.4121C17.97 11.3256 17.97 11.1527 17.97 10.9798C17.2783 11.3256 16.5867 11.4121 15.895 11.4121C13.993 11.4121 12.091 11.4121 10.189 11.4121C9.92961 11.4121 9.84315 11.4986 9.84315 11.7579C9.84315 12.3631 9.84315 12.9683 9.84315 13.5735C9.92961 15.1297 8.63278 16.3401 7.07658 16.2536C5.95267 16.1671 4.82875 15.2161 4.74229 14.0058C4.74229 13.2277 4.74229 12.536 4.74229 11.7579C4.74229 11.585 4.74229 11.4986 4.48292 11.4986C3.87774 11.4986 3.18609 11.4121 2.408 11.0663ZM12.7826 9.683C13.6472 9.683 14.5982 9.683 15.4627 9.683C15.895 9.683 16.2408 9.683 16.6731 9.683C17.8835 9.51009 18.8345 8.29971 18.6616 7.08934C18.5751 5.79251 17.4512 4.8415 16.1544 4.8415C15.4628 4.8415 15.1169 4.58213 15.1169 3.80403C15.1169 2.93948 14.6847 2.33429 13.993 1.90202C12.9555 1.21037 11.5723 1.46974 10.7942 2.5072C10.3619 3.02594 10.1025 3.11239 9.49733 2.85303C9.23797 2.76657 8.89215 2.68012 8.63278 2.59366C7.50886 2.76657 6.55785 3.37176 6.21203 4.40922C6.03912 5.01441 5.60684 5.18732 5.00166 5.10086C4.65584 5.01441 4.22356 4.92795 3.79128 5.01441C2.66736 5.10086 1.88926 6.05187 1.80281 7.17579C1.71635 8.29971 2.49445 9.42363 3.53192 9.59654C4.1371 9.76945 4.82875 9.683 5.52039 9.683C6.29849 9.683 6.55785 10.0288 6.55785 10.7205C6.55785 11.6715 6.55785 12.6225 6.55785 13.5735C6.55785 14.2651 7.16304 14.6109 7.68177 14.438C8.02759 14.2651 8.2005 14.0058 8.2005 13.5735C8.2005 12.6225 8.2005 11.6715 8.2005 10.7205C8.2005 10.0288 8.54633 9.683 9.23797 9.683C10.4483 9.683 11.5723 9.683 12.7826 9.683ZM19.7855 23.8617C20.0449 23.8617 20.3042 23.8617 20.4772 23.8617C21.4282 23.9481 22.3792 23.2565 22.3792 21.9597C22.3792 19.4524 22.3792 16.9452 22.3792 14.5245C22.3792 14.1787 22.3792 13.9193 22.3792 13.5735C22.3792 13.0548 22.1198 12.7089 21.6875 12.3631C21.0823 11.9308 20.4772 12.1037 19.7855 12.0173C19.7855 15.9942 19.7855 19.9712 19.7855 23.8617Z" fill="white"/>
<path d="M6.12549 20.9222C6.12549 19.8847 6.12549 18.7608 6.12549 17.7233C6.12549 17.2911 6.38485 16.9452 6.73068 16.7723C7.0765 16.6859 7.50877 16.8588 7.68168 17.2046C7.76814 17.3775 7.85459 17.6369 7.85459 17.8963C7.85459 19.9712 7.85459 21.9597 7.85459 24.0346C7.85459 24.2075 7.85459 24.294 7.76814 24.4669C7.59523 25.072 6.99004 25.3314 6.47131 24.9856C6.2984 24.7262 6.12549 24.3804 6.12549 24.121C6.12549 22.9971 6.12549 21.9597 6.12549 20.9222Z" fill="white"/>
<path d="M12.5232 20.9222C12.5232 19.7982 12.5232 18.6743 12.5232 17.6369C12.5232 17.2046 12.7826 16.8588 13.2148 16.7723C13.6471 16.6859 13.9929 16.9452 14.1658 17.291C14.2523 17.464 14.2523 17.5504 14.2523 17.7233C14.2523 19.8847 14.2523 22.0461 14.2523 24.2075C14.2523 24.7262 13.9065 25.1585 13.3877 25.1585C13.0419 25.1585 12.5232 24.8127 12.5232 24.2075C12.6096 23.0836 12.5232 21.9596 12.5232 20.9222Z" fill="white"/>
</svg>
