<svg width="18" height="32" viewBox="0 0 18 32" fill="none" xmlns="http://www.w3.org/2000/svg">
<path d="M17.6399 16.0443V8.15512V5.22992L16.2216 3.81163C16.3102 3.63435 16.3989 3.54571 16.3989 3.36842C16.3989 2.83657 16.0443 2.48199 15.5125 2.48199H7.35734L8.33241 1.50692C8.68698 1.15235 8.68698 0.620499 8.33241 0.265928C7.97784 -0.0886426 7.44598 -0.0886426 7.09141 0.265928L4.87535 2.39335H2.21607C1.68421 2.39335 1.32964 2.74792 1.32964 3.27978C1.32964 3.45706 1.41828 3.63435 1.50693 3.72299L0 5.22992V29.2521L1.41828 30.6704C1.32964 30.8476 1.241 30.9363 1.241 31.1136C1.241 31.6454 1.59557 32 2.12742 32H15.4238C15.9557 32 16.3102 31.6454 16.3102 31.1136C16.3102 30.9363 16.2216 30.759 16.133 30.6704L17.5512 29.2521V16.0443H17.6399ZM14.0942 4.1662L15.867 5.93906V7.97784C14.0055 12.144 10.5485 15.3352 6.20499 16.7535C5.76177 16.9307 5.49584 17.374 5.67313 17.9058C5.76177 18.2604 6.0277 18.5263 6.47091 18.5263C6.55956 18.5263 6.6482 18.5263 6.73684 18.4377C10.4598 17.1967 13.651 14.7147 15.867 11.5235V15.867C13.4737 21.7174 7.97784 25.5291 1.77285 25.8837V19.3241C2.48199 19.3241 3.19114 19.2355 3.90028 19.1468C4.34349 19.0582 4.69806 18.615 4.60942 18.1717C4.52077 17.7285 4.07756 17.374 3.63435 17.4626C3.01385 17.5512 2.39335 17.6399 1.77285 17.6399V5.93906L3.54571 4.1662H14.0942ZM3.54571 30.3158L1.77285 28.5429V27.6565C7.53463 27.3906 12.6759 24.3767 15.867 19.6787V28.5429L14.0942 30.3158H3.54571Z" fill="white"/>
</svg>
