<svg width="13" height="32" viewBox="0 0 13 32" fill="none" xmlns="http://www.w3.org/2000/svg">
<path d="M11.8752 19.2688C12.2193 18.9247 12.3913 18.5806 12.3913 18.1505C12.3913 17.7204 12.2193 17.2903 11.8752 16.8602C11.9612 16.7741 12.0473 16.6021 12.1333 16.5161C12.4774 15.9139 12.3913 15.1397 11.8752 14.5376C12.0473 14.3655 12.2193 14.1075 12.3053 13.8494C12.3913 13.5053 12.4774 12.8171 11.8752 12.215C12.0473 11.9569 12.3053 11.6128 12.3913 11.1827C12.4774 9.63434 12.1333 8.34402 11.2731 7.31176C10.3268 6.19348 9.20855 5.59133 7.91823 5.50531C7.14403 5.41929 6.28382 5.41929 5.50962 5.50531H5.07952C4.73543 5.50531 4.39135 5.50531 3.96124 5.59133C1.8107 5.93542 0.0902695 7.91391 0.00424797 10.2365C0.00424797 10.6666 -0.0817735 11.5268 0.520377 12.129C-0.0817735 12.9032 -0.0817735 13.7634 0.520377 14.4515C0.434356 14.5376 0.434356 14.5376 0.348334 14.6236C-0.167795 15.2257 -0.0817736 16.086 0.434356 16.6881L0.520377 16.7741C0.520377 16.7741 0.520377 16.7741 0.520377 16.8602C-0.167795 17.6343 -0.167795 18.4085 0.520377 19.1827C0.176291 19.6128 0.00424797 20.0429 0.00424797 20.6451V29.7634C0.00424797 30.1075 0.00424798 30.6236 0.348334 31.1397C0.950485 31.9999 1.98274 31.9999 2.32683 31.9999C3.53113 31.9999 4.64941 31.9999 5.85371 31.9999C7.23006 31.9999 8.6064 31.9999 9.89672 31.9999H9.98274C10.2408 31.9999 10.5849 31.9999 10.929 31.8279C11.7892 31.4838 12.3053 30.7096 12.3053 29.7634V20.5591C12.3913 20.0429 12.2193 19.6128 11.8752 19.2688ZM10.4129 30.2795C10.3268 30.2795 10.2408 30.2795 10.0688 30.2795H9.98274C7.48812 30.2795 4.90747 30.2795 2.41285 30.2795C1.89672 30.2795 1.89672 30.1935 1.8107 30.1075C1.72468 30.0214 1.72468 29.9354 1.72468 29.7634V20.6451C1.72468 20.4731 1.72468 20.4731 1.8107 20.4731C1.98274 20.301 2.06876 20.215 2.24081 20.0429L2.32683 19.7849C2.67092 19.4408 2.58489 18.9247 2.24081 18.5806L2.15479 18.4946C2.06876 18.4085 1.98274 18.2365 1.89672 18.1505L1.8107 18.0645L1.89672 17.9784C1.98274 17.8924 2.06876 17.8064 2.24081 17.6343C2.58489 17.0322 2.49887 16.344 1.98274 15.9139L1.89672 15.8279L1.72468 15.7419C1.8107 15.6558 1.89672 15.4838 1.98274 15.4838C2.49887 14.9677 2.58489 14.2795 2.06876 13.6774C1.98274 13.5913 1.89672 13.4193 1.72468 13.3333L1.8107 13.2472C1.89672 13.1612 1.98274 13.0752 1.98274 13.0752C2.24081 12.7311 2.41285 12.387 2.32683 12.0429C2.32683 11.6989 2.15479 11.4408 1.8107 11.1827C1.72468 11.0107 1.72468 10.8386 1.72468 10.3225C1.8107 8.77413 2.84296 7.48381 4.30532 7.22574C4.64941 7.13972 4.90747 7.13972 5.07952 7.13972H5.50962C6.28382 7.13972 7.05801 7.13972 7.83221 7.13972C8.69242 7.22574 9.38059 7.56983 9.98274 8.34402C10.5849 9.03219 10.843 9.89241 10.7569 10.9247C10.7569 10.9247 10.7569 11.0107 10.5849 11.1827C9.89672 12.0429 9.89672 12.5591 10.6709 13.3333C10.6709 13.4193 10.5849 13.4193 10.5849 13.5053C9.89672 14.2795 9.89672 14.8817 10.6709 15.6559L10.7569 15.7419C10.7569 15.7419 10.7569 15.7419 10.6709 15.8279C10.5849 15.9139 10.4989 15.9999 10.4129 16.086C9.98274 16.6881 9.98274 17.3763 10.4989 17.8924C10.5849 17.9784 10.5849 17.9784 10.6709 18.0645L10.7569 18.1505C10.4129 18.4946 10.1548 18.8386 10.1548 19.3548C10.1548 19.9569 10.5849 20.301 10.843 20.5591C10.843 20.5591 10.843 20.5591 10.843 20.7311V29.9354C10.6709 30.1075 10.5849 30.1935 10.4129 30.2795Z" fill="white"/>
<path d="M8.95055 11.1828C9.46668 11.1828 9.81077 10.7527 9.81077 10.2366C9.81077 9.63443 9.63872 9.20432 9.29464 8.77422C8.86453 8.25809 8.3484 7.914 7.74625 7.914C7.31614 7.914 6.88603 8.25809 6.80001 8.6882C6.71399 9.1183 7.1441 9.54841 7.57421 9.63443C7.66023 9.63443 7.66023 9.63443 7.91829 9.8925C8.00431 9.97852 8.00431 10.0645 8.09033 10.3226C8.09033 10.8387 8.52044 11.1828 8.95055 11.1828Z" fill="white"/>
<path d="M9.12242 20.129C8.60629 20.129 8.26221 20.4731 8.26221 20.9892V28.7312C8.26221 29.2473 8.60629 29.5914 9.12242 29.5914C9.63855 29.5914 9.98264 29.2473 9.98264 28.7312V20.9892C9.98264 20.5591 9.63855 20.129 9.12242 20.129Z" fill="white"/>
<path d="M3.96147 4.73118C4.73567 4.73118 5.50986 4.73118 6.28405 4.73118C7.05825 4.73118 7.83244 4.73118 8.60663 4.73118C9.55287 4.73118 10.155 4.21505 10.155 3.1828C10.155 2.58065 10.155 2.06452 10.155 1.46237C10.155 0.688172 9.63889 0.0860215 8.8647 0C8.52061 0 8.34857 0 8.17653 0H3.96147C3.87545 0 3.87545 0 3.78943 0C2.75717 0.258065 2.41309 0.688172 2.41309 1.72043V2.15054C2.41309 2.49462 2.41309 2.83871 2.41309 3.1828C2.41309 4.12903 2.92921 4.73118 3.96147 4.73118ZM4.13352 2.15054V1.72043H8.17653H8.26255C8.26255 2.15054 8.26255 2.58065 8.26255 3.01075C6.8862 3.01075 5.50986 3.01075 4.04749 3.01075C4.13352 2.75269 4.13352 2.49462 4.13352 2.15054Z" fill="white"/>
</svg>
