<svg width="23" height="23" viewBox="0 0 23 23" fill="none" xmlns="http://www.w3.org/2000/svg">
<path d="M20.8769 0H2.12308C0.973077 0 0 0.973077 0 2.12308V19.55C0 21.4077 1.59231 23 3.45 23H19.55C21.4962 23 23 21.4077 23 19.55V2.12308C23 0.973077 22.0269 0 20.8769 0ZM3.62692 17.8692C2.56538 17.8692 1.76923 16.9846 1.76923 16.0115V9.55385H2.74231L3.27308 7.60769C3.36154 7.16538 3.71538 6.72308 4.15769 6.54615C4.6 6.28077 5.04231 6.28077 5.48461 6.36923L9.28846 7.43077C9.73077 7.51923 10.1731 7.87308 10.35 8.22692C10.5269 8.58077 10.6154 9.11154 10.5269 9.46538H11.6769C11.9423 8.93462 12.4731 8.49231 13.0923 8.40385L17.4269 7.96154C18.4885 7.78462 19.3731 8.58077 19.55 9.55385H21.3192V16.0115C21.3192 17.0731 20.4346 17.8692 19.4615 17.8692H3.62692Z" fill="white"/>
<path d="M3.98071 11.9422L7.87302 13.0038L8.93456 9.19993L5.04225 8.04993L3.98071 11.9422Z" fill="white"/>
<path d="M17.6039 9.73083L13.3577 10.2616C13.2693 10.2616 13.2693 10.3501 13.2693 10.3501L13.8001 14.5962L13.8885 14.6847L18.1347 14.1539C18.2231 14.1539 18.2231 14.0654 18.2231 14.0654L17.6924 9.73083C17.6924 9.73083 17.6924 9.73083 17.6039 9.73083Z" fill="white"/>
</svg>
