<svg width="17" height="32" viewBox="0 0 17 32" fill="none" xmlns="http://www.w3.org/2000/svg">
<path d="M13.6903 28.5564H13.5223C13.1024 28.5564 12.6824 28.5564 12.2625 28.4724C11.1706 28.3045 10.4987 27.1286 10.4987 26.5407V18.2257C14.0262 17.3018 16.7139 14.0262 16.7139 10.1627H16.6299C16.6299 9.91076 16.6299 9.65879 16.6299 9.40683C16.5459 8.56693 16.378 7.64305 16.21 6.63517C15.958 5.29134 15.622 3.94751 15.2861 2.60367L15.2021 2.26772C15.1181 1.93176 15.0341 1.67979 14.9501 1.34383L14.8661 1.09186C14.6142 0.335958 14.0262 0 13.2703 0C9.99475 0 6.71916 0 3.44357 0C2.68766 0 2.09974 0.419947 1.84777 1.09186C1.34383 2.51969 0.923885 4.0315 0.587927 5.79528L0.503937 6.29921C0.335958 7.05512 0.167979 7.89501 0.0839895 8.73491C0 9.23885 0 9.65879 0.0839895 10.1627H0C0 14.1102 2.68766 17.3858 6.29921 18.3097V26.3727C6.21522 27.3806 5.71129 28.0525 4.7874 28.4724C4.45144 28.5564 4.0315 28.5564 3.44357 28.5564H3.1916C2.68766 28.5564 2.18373 28.7244 1.84777 29.0604C1.51181 29.3963 1.34383 29.8163 1.34383 30.2362C1.34383 31.1601 2.18373 32 3.1916 32C4.95538 32 6.71916 32 8.48294 32C10.2467 32 12.0105 32 13.7743 32C14.2782 32 14.7822 31.832 15.1181 31.4121C15.4541 31.0761 15.622 30.6562 15.622 30.2362C15.5381 29.3963 14.8661 28.5564 13.6903 28.5564ZM1.76378 10.1627C1.76378 9.74278 1.76378 9.32283 1.76378 8.98688C1.84777 8.23097 2.01575 7.47507 2.18373 6.63517L2.26772 6.13123C2.51969 4.45144 2.93963 3.02362 3.44357 1.67979C6.71916 1.67979 9.99475 1.67979 13.2703 1.67979L13.3543 1.93176C13.4383 2.18373 13.5223 2.4357 13.6063 2.68766L13.6903 3.02362C14.0262 4.36745 14.3622 5.6273 14.6142 6.97113C14.7822 7.89501 14.9501 8.73491 15.0341 9.49081C15.0341 9.65879 15.0341 9.91076 15.0341 10.0787H1.76378V10.1627ZM13.6903 30.3202C10.1627 30.3202 6.71916 30.3202 3.1916 30.3202C3.10761 30.3202 3.02362 30.2362 3.02362 30.3202C3.02362 30.3202 3.10761 30.3202 3.1916 30.2362H3.44357C4.11549 30.2362 4.87139 30.2362 5.54331 29.9003C6.97113 29.2283 7.89501 28.0525 7.979 26.3727V18.4777C8.06299 18.4777 8.23097 18.4777 8.31496 18.4777C8.48294 18.4777 8.65092 18.4777 8.8189 18.4777V26.5407C8.8189 27.9685 10.0787 29.8163 11.9265 30.1522C12.4304 30.2362 13.0184 30.2362 13.5223 30.2362H13.6063C13.7743 30.2362 13.7743 30.2362 13.7743 30.3202C13.8583 30.3202 13.7743 30.3202 13.6903 30.3202Z" fill="white"/>
</svg>
