<svg
        width="40"
        height="40"
        viewBox="0 0 40 40"
        fill="none"
        xmlns="http://www.w3.org/2000/svg"
>
    <path
            d="M26.2999 19.8C26.2999 19.9 26.2 20 26 20L24 19.7C23.8 19.7 23.7 19.4999 23.7 19.3999V15.3999C23.7 15.2999 23.8 15.2 24 15.2L26 15.7C26.2 15.7 26.2999 15.9 26.2999 16V19.8Z"
            fill="#D7C378"
    />
    <path
            d="M29.4 20.3C29.4 20.4 29.2999 20.5 29.0999 20.5L27.5 20.2C27.4 20.2 27.2 20.1 27.2 19.9V16.2C27.2 16.1 27.3 16 27.5 16L29.0999 16.4C29.1999 16.4 29.4 16.6 29.4 16.7V20.3Z"
            fill="#D7C378"
    />
    <path
            d="M29.4 25.4C29.4 25.5 29.2999 25.6 29.0999 25.6H27.5C27.4 25.6 27.2 25.5 27.2 25.4V21.7C27.2 21.6 27.3 21.5 27.5 21.5L29.0999 21.7C29.1999 21.7 29.4 21.8 29.4 21.9V25.4Z"
            fill="#D7C378"
    />
    <path
            d="M32.1 25.5C32.1 25.6 32.0001 25.7 31.9001 25.7H30.5C30.4 25.7 30.3 25.6 30.3 25.5V22.1C30.3 22 30.4 21.9 30.5 21.9L31.9001 22.1C32.0001 22.1 32.1 22.2 32.1 22.3V25.5Z"
            fill="#D7C378"
    />
    <path
            d="M10.8 22.1V25.4C10.8 25.5 10.7 25.6 10.6 25.6H9.10003C9.00003 25.6 8.90002 25.5 8.90002 25.4V22.2C8.90002 22.1 9.00003 22 9.10003 22L10.6 21.9C10.7 21.9 10.8 22 10.8 22.1Z"
            fill="#D7C378"
    />
    <path
            d="M13.9 20.2C13.9 20.3 13.8 20.5 13.6 20.5L11.9 20.7C11.8 20.7 11.7 20.6 11.7 20.5V17.1C11.7 17 11.8 16.9 11.9 16.8L13.6 16.5C13.7 16.5 13.9 16.6 13.9 16.7V20.2Z"
            fill="#D7C378"
    />
    <path
            d="M21.3 25.2C21.3 25.4 21.2 25.5 21 25.5H18.8C18.6 25.5 18.5 25.4 18.5 25.3V21.5C18.5 21.4 18.6 21.2 18.8 21.2L21 21C21.2 21 21.3 21.1 21.3 21.2V25.2Z"
            fill="#D7C378"
    />
    <path
            d="M40 20C40 23.7 39 27.1 37.3 30H32.8V16.5L27.7 9.7L12.1 14.1L8 16.5V30H2.7C1 27.1 0 23.6 0 20C0 9 8.9 0 20 0C31.1 0 40 8.9 40 20Z"
            fill="#D7C378"
    />
    <path
            d="M32.8 31.4L29.3 37.7C26.5 39.2 23.3 40 19.9 40C13.5 40 7.79998 37 4.09998 32.3L7.89997 31.4L14.7 32.1L17.2 32.3L22.4 32.8L32.8 31.4Z"
            fill="#D7C378"
    />
    <path
            d="M32.8 31.4L29.3 37.7C26.5 39.2 23.3 40 19.9 40C13.5 40 7.79998 37 4.09998 32.3L7.89997 31.4L14.7 32.1L17.2 32.3L22.4 32.8L32.8 31.4Z"
            fill="#D7C378"
    />
    <path
            d="M31.4 16.1001L24.1 13.8001C23.9 13.7001 23.9 13.5001 24 13.4001L27.4 10.8001C27.5 10.7001 27.7 10.7001 27.8 10.8001L31.6 15.8001C31.7 15.9001 31.6 16.1001 31.4 16.1001Z"
            fill="#D7C378"
    />
    <path d="M17.4 32.3001L14.9 32.1001L17.4 32.3001Z" fill="#D7C378" />
    <path
            d="M17.4 27.1V32.4L14.9 32.2V27.2C14.9 27.1 15 27 15.2 27H17.1C17.2 26.8 17.4 26.9 17.4 27.1Z"
            fill="#D7C378"
    />
    <path
            d="M26.3 27V30.8C26.3 30.9 26.2 31 26 31.1L24.1 31.3C23.9 31.3 23.8 31.2 23.8 31.1V27.1C23.8 27 23.9 26.8 24.1 26.8H26C26.1 26.8 26.3 26.9 26.3 27Z"
            fill="#D7C378"
    />
    <path
            d="M29.4 27.0001V30.5001C29.4 30.6001 29.2999 30.7001 29.0999 30.8001L27.5 31.0001C27.4 31.0001 27.2 30.9001 27.2 30.8001V27.1001C27.2 27.0001 27.3 26.9001 27.5 26.9001H29.0999C29.2999 26.8001 29.4 26.9001 29.4 27.0001Z"
            fill="#D7C378"
    />
    <path
            d="M32.1 27V30.2C32.1 30.3 32.0001 30.4 31.9001 30.4L30.5 30.6C30.4 30.6 30.3 30.5 30.3 30.4V27C30.3 26.9 30.4 26.8 30.5 26.8H31.9001C32.0001 26.7 32.1 26.8 32.1 27Z"
            fill="#D7C378"
    />
    <path
            d="M27.5 26.8L31.9 26.7V30.3999L27.5 30.8999V26.8Z"
            fill="#D7C378"
    />
</svg>