<svg
        width="41"
        height="40"
        viewBox="0 0 41 40"
        fill="none"
        xmlns="http://www.w3.org/2000/svg"
>
    <path
            d="M39.8 16.9034C38.5 8.00344 31.1 1.00344 22.1 0.103444C10.1 -1.09656 0 8.30345 0 20.0034C0 23.6034 1 27.1034 2.7 30.0034H7.4V21.5034C7.4 21.1034 7.6 20.8034 8 20.7034L16.6 18.2034C16.9 18.1034 17.2 17.8034 17.2 17.4034V12.0034C17.2 11.5034 17.5 11.1034 17.9 10.8034L24.1 7.90344C24.4 7.70344 24.8 7.70344 25.2 7.90344L31.4 10.8034C31.8 11.0034 32.1 11.5034 32.1 12.0034V30.0034H37.2C39.5 26.2034 40.5 21.7034 39.8 16.9034Z"
            fill="#D7C378"
    />
    <path
            d="M24.1 37.5034L17.1 35.8034L7.29997 33.5034L5.59998 33.9034C9.19998 37.6034 14.3 39.9034 19.9 39.9034C24.5 39.9034 28.7 38.4034 32.1 35.8034L25.1 37.5034C24.8 37.5034 24.5 37.5034 24.1 37.5034Z"
            fill="#D7C378"
    />
    <path
            d="M27.1 12.6035C27.2 12.6035 27.3 12.6035 27.3 12.4035V10.0035C27.3 9.90349 27.2 9.70349 27.1 9.60349L25.6 8.90348C25.5 8.80348 25.4 8.90349 25.4 9.00349V11.6035C25.4 11.7035 25.5 11.9035 25.6 11.9035L27.1 12.6035Z"
            fill="#D7C378"
    />
    <path
            d="M29.4 10.7034L28.1 10.1034C28 10.0034 27.9 10.1034 27.9 10.2034V12.6034C27.9 12.7034 28 12.9034 28.1 12.9034L29.4 13.4034C29.5 13.4034 29.6 13.4034 29.6 13.2034V10.9034C29.6 10.9034 29.5 10.8034 29.4 10.7034Z"
            fill="#D7C378"
    />
    <path
            d="M31.5 11.6034L30.4 11.1034C30.3 11.0034 30.2 11.1034 30.2 11.2034V13.4034C30.2 13.5034 30.3 13.7034 30.4 13.7034L31.5 14.1034C31.6 14.1034 31.7 14.1034 31.7 13.9034V11.8034C31.7 11.9034 31.6 11.7034 31.5 11.6034Z"
            fill="#D7C378"
    />
    <path
            d="M25.3 15.8035C25.3 15.9035 25.4 16.1035 25.5 16.1035L27 16.5035C27.1 16.5035 27.2001 16.5035 27.2001 16.3035V13.9035C27.2001 13.8035 27.1 13.6035 27 13.6035L25.5 13.1035C25.4 13.1035 25.3 13.1035 25.3 13.3035V15.8035Z"
            fill="#D7C378"
    />
    <path
            d="M29.4 14.4034L28.1 14.0034C28 14.0034 27.9 14.0034 27.9 14.2034V16.6034C27.9 16.7034 28 16.9034 28.1 16.9034L29.4 17.2034C29.5 17.2034 29.6 17.2034 29.6 17.0034V14.7034C29.6 14.6034 29.5 14.4034 29.4 14.4034Z"
            fill="#D7C378"
    />
    <path
            d="M31.5 15.1035L30.4 14.7035C30.3 14.7035 30.2 14.7035 30.2 14.9035V17.1035C30.2 17.2035 30.3 17.4035 30.4 17.4035L31.5 17.7035C31.6 17.7035 31.7 17.7035 31.7 17.5035V15.4035C31.7 15.3035 31.6 15.2035 31.5 15.1035Z"
            fill="#D7C378"
    />
    <path
            d="M25.3 19.9035C25.3 20.0035 25.4 20.2035 25.5 20.2035L27 20.5035C27.1 20.5035 27.2001 20.4035 27.2001 20.3035V17.9035C27.2001 17.8035 27.1 17.6035 27 17.6035L25.5 17.2035C25.4 17.2035 25.3 17.3035 25.3 17.4035V19.9035Z"
            fill="#D7C378"
    />
    <path
            d="M31.4 18.6035L30.3 18.3035C30.2 18.3035 30.1 18.4035 30.1 18.5035V20.7035C30.1 20.8035 30.2 21.0035 30.3 21.0035L31.3 21.2035C31.4 21.2035 31.5 21.1035 31.5 21.0035V18.9035C31.7 18.8035 31.6 18.6035 31.4 18.6035Z"
            fill="#D7C378"
    />
    <path
            d="M29.4 21.8035L28.2 21.6035C28.1 21.6035 28 21.7035 28 21.8035V24.2035C28 24.3035 28.1 24.5035 28.2 24.5035L29.4 24.6035C29.5 24.6035 29.6 24.5035 29.6 24.4035V22.1035C29.6 21.9035 29.5 21.8035 29.4 21.8035Z"
            fill="#D7C378"
    />
    <path
            d="M31.4 22.1034L30.4 21.9034C30.3 21.9034 30.2 22.0034 30.2 22.1034V24.3034C30.2 24.4034 30.3 24.6034 30.4 24.6034L31.4 24.7034C31.5 24.7034 31.5999 24.6034 31.5999 24.5034V22.4034C31.6999 22.2034 31.6 22.1034 31.4 22.1034Z"
            fill="#D7C378"
    />
    <path
            d="M27 25.3035L25.5 25.2035C25.4 25.2035 25.3 25.3035 25.3 25.4035V28.0035C25.3 28.1035 25.4 28.2035 25.6 28.2035H27.1C27.2 28.2035 27.3 28.1035 27.3 27.9035V25.5035C27.3 25.4035 27.2 25.3035 27 25.3035Z"
            fill="#D7C378"
    />
    <path
            d="M29.4 25.4035L28.2 25.3035C28.1 25.3035 28 25.4035 28 25.5035V27.9035C28 28.0035 28.1 28.1035 28.3 28.1035H29.5C29.6 28.1035 29.8 28.0035 29.7 27.8035V25.5035C29.6 25.6035 29.5 25.4035 29.4 25.4035Z"
            fill="#D7C378"
    />
    <path
            d="M31.4 25.6034L30.4 25.5034C30.3 25.5034 30.2 25.6034 30.2 25.7034V27.9034C30.2 28.0034 30.3 28.1034 30.4 28.1034H31.4C31.5 28.1034 31.5999 28.0034 31.5999 27.8034V25.7034C31.6999 25.7034 31.6 25.6034 31.4 25.6034Z"
            fill="#D7C378"
    />
    <path
            d="M27 29.2035L25.5 29.3035C25.4 29.3035 25.3 29.4035 25.3 29.6035V32.2035C25.3 32.3035 25.4 32.4035 25.5 32.4035L27 32.2035C27.1 32.2035 27.2001 32.1035 27.2001 31.9035V29.5035C27.3001 29.3035 27.2 29.2035 27 29.2035Z"
            fill="#D7C378"
    />
    <path
            d="M29.4 29.1034L28.2 29.2034C28.1 29.2034 28 29.3034 28 29.5034V31.9034C28 32.0034 28.1 32.1034 28.2 32.1034L29.4 32.0034C29.5 32.0034 29.6 31.9034 29.6 31.7034V29.4034C29.6 29.2034 29.5 29.1034 29.4 29.1034Z"
            fill="#D7C378"
    />
    <path
            d="M27 33.1034L25.5 33.3034C25.4 33.3034 25.3 33.4034 25.3 33.6034V36.2034C25.3 36.3034 25.4 36.4034 25.5 36.4034L27 36.1034C27.1 36.1034 27.2001 35.9034 27.2001 35.8034V33.4034C27.3001 33.2034 27.2 33.1034 27 33.1034Z"
            fill="#D7C378"
    />
    <path
            d="M29.4 32.8035L28.2 33.0035C28.1 33.0035 28 33.1035 28 33.3035V35.7035C28 35.8035 28.1 35.9035 28.2 35.9035L29.4 35.6035C29.5 35.6035 29.6 35.4035 29.6 35.3035V33.0035C29.6 32.9035 29.5 32.8035 29.4 32.8035Z"
            fill="#D7C378"
    />
    <path
            d="M30.4 32.7034C30.3 32.7034 30.2 32.8034 30.2 33.0034V35.2034C30.2 35.3034 30.3 35.4034 30.4 35.4034L31.5 35.2034C31.6 35.2034 31.7 35.0034 31.7 34.9034V32.8034C31.7 32.7034 31.6 32.6034 31.5 32.6034L30.4 32.7034Z"
            fill="#D7C378"
    />
    <path
            d="M18.1 17.7034L19.9 17.2034C20 17.2034 20.1 17.0034 20.1 16.9034V14.6034C20.1 14.5034 20 14.4034 19.9 14.4034L18.1 15.0034C18 15.0034 17.9 15.2034 17.9 15.3034V17.4034C17.9 17.6034 18 17.7034 18.1 17.7034Z"
            fill="#D7C378"
    />
    <path
            d="M15.5 28.2035H17C17.1 28.2035 17.2001 28.1035 17.2001 28.0035V25.9035C17.2001 25.8035 17.1 25.7035 17 25.7035L15.5 25.8035C15.4 25.8035 15.3 25.9035 15.3 26.1035V28.0035C15.3 28.0035 15.4 28.2035 15.5 28.2035Z"
            fill="#D7C378"
    />
    <path
            d="M9.50005 25.4035L10.3 25.3035C10.4 25.3035 10.5 25.2035 10.5 25.0035V23.4035C10.5 23.3035 10.4 23.2035 10.3 23.2035L9.50005 23.3035C9.40005 23.3035 9.30005 23.5035 9.30005 23.6035V25.1035C9.30005 25.3035 9.40005 25.4035 9.50005 25.4035Z"
            fill="#D7C378"
    />
    <path
            d="M11.3 30.9035L12.3 31.0035C12.4 31.0035 12.5 30.9035 12.5 30.8035V29.1035C12.5 29.0035 12.4 28.8035 12.3 28.8035H11.3C11.2 28.8035 11.1 28.9035 11.1 29.0035V30.6035C11 30.8035 11.1 30.9035 11.3 30.9035Z"
            fill="#D7C378"
    />
</svg>