<svg
        width="40"
        height="40"
        viewBox="0 0 40 40"
        fill="none"
        xmlns="http://www.w3.org/2000/svg"
>
    <path
            d="M40 20C40 23.7 39 27.1 37.3 30H31V14.8L27.8 14.1L22 14.8V10.4L21.5 10.2L20.3 9.8L19.4 9.5L14.7 10.4V20.7H14.2L12.6 20.5L8.7 20.7V30H2.7C1 27.1 0 23.7 0 20C0 9 8.9 0 20 0C31.1 0 40 8.9 40 20Z"
            fill="#D7C378"
    />
    <path
            d="M28.5 32.4V15.3C28.5 15.1 28.7 15 28.9 15L30 15.2C30.2 15.2 30.4 15.4 30.4 15.6V32C30.4 32.2 30.2 32.4 30 32.5L28.9 32.7C28.7 32.8 28.5 32.6 28.5 32.4Z"
            fill="#D7C378"
    />
    <path
            d="M13.3 21.5001C13.3 21.3001 13.5001 21.1001 13.7001 21.2001H13.9C14.1 21.2001 14.3 21.4001 14.3 21.6001L14.2001 30.8001C14.2001 31.0001 14.2 31.1001 13.9 31.2001C13.8 31.2001 13.7 31.2001 13.6 31.3001C13.5 31.4001 13.4 31.2001 13.4 31.0001L13.3 21.5001Z"
            fill="#D7C378"
    />
    <path
            d="M20.5 31.9001C20.3 31.9001 20.1 31.8001 20.1 31.6001V10.9001C20.1 10.7001 20.3 10.6001 20.5 10.6001L21 10.7001C21.2 10.8001 21.4 11.0001 21.4 11.2001V31.3001C21.4 31.5001 21.2 31.7001 21 31.8001L20.5 31.9001Z"
            fill="#D7C378"
    />
    <path
            d="M31 33.1L27.8 38.4001C25.4 39.4001 22.7 40 20 40C13.9 40 8.50002 37.3 4.90002 33.1L8.80002 31.8L12.7 32.2L14.8 31.8V32.4L19.5 32.9L22.1 32.4V33.2L27.9 33.8L28.7 33.6L30.5 33.3L31 33.1Z"
            fill="#D7C378"
    />
</svg>