<svg width="50" height="55" viewBox="0 0 50 55" fill="none" xmlns="http://www.w3.org/2000/svg">
<path d="M22.4686 22.9665C21.4625 23.1342 20.6241 23.218 19.7858 23.218C18.8635 23.218 17.9413 23.1342 17.0191 22.8827C16.0969 22.715 15.1746 22.1281 14.4201 21.3736C14.1686 21.122 13.9171 21.0382 13.6655 21.0382C13.414 21.0382 13.2463 21.2897 13.1625 21.7089C13.0787 22.2958 12.9948 22.8827 12.911 23.5534C12.8271 24.2241 12.8271 24.811 12.8271 25.314C12.8271 28.0807 13.3302 30.512 14.3362 32.608C15.3423 34.7039 16.8514 36.2969 18.6959 37.4706C20.5403 38.6443 22.7201 39.2312 25.2353 39.2312C26.8282 39.2312 28.1696 38.9797 29.2595 38.4767C30.3494 37.9736 31.1878 37.3868 31.7747 36.7999C31.9424 36.6322 32.1101 36.4645 32.2777 36.2969C32.4454 36.5484 32.6131 36.716 32.7808 36.9676C33.1161 37.4706 33.3676 38.0575 33.6192 38.7282C33.8707 39.3989 34.1222 40.0696 34.3737 40.8241C34.4575 41.0757 34.5414 41.2433 34.7929 41.3272C34.9606 41.411 35.1282 41.4949 35.2959 41.4949C35.7151 41.4949 36.0505 41.3272 36.3858 40.9918C36.7212 40.6565 36.805 40.2373 36.805 39.7342C36.805 39.2312 36.6373 38.6443 36.2182 37.9736C35.799 37.3029 35.3798 36.6322 34.7929 35.9615C34.206 35.2908 33.7868 34.7878 33.4515 34.4524C32.4454 33.5302 31.4393 32.9433 30.2656 32.5241C29.0919 32.1049 28.002 31.7696 26.9121 31.6019C25.8221 31.4342 24.7322 31.1827 23.7262 30.9312C22.7201 30.6797 21.7979 30.3443 21.0433 29.8413C20.2888 29.3382 19.7019 28.6675 19.2827 27.6615C19.1989 27.4938 19.2827 27.3261 19.3666 27.2423C19.5342 27.1584 19.7019 27.1584 19.8696 27.3261C20.708 27.9968 21.4625 28.4999 22.3848 28.8352C23.2232 29.0867 24.1454 29.3382 24.9838 29.4221C25.906 29.5059 26.8282 29.5898 27.7504 29.7574C28.6727 29.9251 29.5949 30.1766 30.601 30.512C31.5232 30.9312 32.5292 31.518 33.4515 32.3564C33.6192 32.5241 33.7868 32.608 34.0383 32.5241C34.206 32.4403 34.3737 32.3564 34.3737 32.1049C34.3737 31.9372 34.3737 31.7696 34.4575 31.518C34.4575 31.2665 34.4575 31.015 34.4575 30.7635C34.4575 28.0807 33.6192 26.0685 31.9424 24.7271C30.2656 23.3857 28.0858 22.715 25.403 22.715C24.3969 22.7988 23.4747 22.7988 22.4686 22.9665Z" fill="black"/>
<path d="M48.7941 21.9604C47.9557 19.4452 46.6982 17.0977 45.1052 15.0018C43.5123 12.9058 41.6678 11.0614 39.5719 9.55225C39.0688 9.13306 38.482 8.96538 37.8951 9.13306C37.3082 9.2169 36.889 9.55225 36.5537 10.0553C36.2183 10.5583 36.1345 11.0614 36.3022 11.6482C36.4698 12.2351 36.8052 12.6543 37.3082 12.9896C39.0688 14.2472 40.5779 15.7563 41.8355 17.4331C43.0931 19.1937 44.0992 21.122 44.8537 23.218C45.6083 25.3139 45.9436 27.5776 45.9436 29.8412C45.9436 32.7756 45.4406 35.4584 44.3507 37.9736C43.2608 40.4887 41.7517 42.7524 39.9072 44.5968C37.9789 46.5251 35.7991 48.0342 33.284 49.0403C30.7688 50.0464 28.0021 50.6332 25.1516 50.6332C22.3011 50.6332 19.5344 50.1302 17.0193 49.0403C14.5041 47.9504 12.3243 46.4413 10.396 44.5968C8.46771 42.6685 6.95861 40.4887 5.95255 37.9736C4.94648 35.4584 4.19194 32.7756 4.19194 29.9251C4.19194 27.0745 4.69497 24.3079 5.78487 21.7927C6.87477 19.2775 8.38387 17.0139 10.2283 15.1694C12.1566 13.2412 14.3364 11.7321 16.8516 10.726C17.9415 10.223 19.1152 9.88761 20.289 9.63609V13.1573C20.289 13.9957 20.5405 14.5826 21.0435 14.7503C21.5466 14.9179 22.1334 14.8341 22.8041 14.3311L30.6011 8.79771C31.188 8.46235 31.4395 7.95932 31.4395 7.45629C31.4395 6.95325 31.188 6.45022 30.6011 6.03103L22.8041 0.497674C22.1334 -0.00535872 21.5466 -0.0891974 20.9597 0.07848C20.3728 0.246157 20.2051 0.833028 20.2051 1.75525V5.19264C18.5284 5.528 16.8516 6.03103 15.2586 6.70174C12.2405 8.04316 9.55761 9.80377 7.29397 12.1513C5.03032 14.4987 3.26971 17.1816 1.92829 20.1998C0.586871 23.218 0 26.4877 0 29.9251C0 33.3624 0.67071 36.5483 1.92829 39.5665C3.26971 42.5847 5.03032 45.2675 7.37781 47.5312C9.72529 49.7948 12.3243 51.6393 15.3425 52.9807C18.3607 54.3221 21.5466 54.909 24.9839 54.909C28.4213 54.909 31.6072 54.2383 34.6254 52.9807C37.6436 51.6393 40.3264 49.8787 42.5901 47.5312C44.9376 45.2675 46.6982 42.5847 48.0396 39.5665C49.381 36.5483 49.9679 33.2786 49.9679 29.9251C50.1356 27.1584 49.6325 24.4755 48.7941 21.9604Z" fill="black"/>
</svg>
