<?xml version="1.0" encoding="UTF-8"?>
<svg xmlns="http://www.w3.org/2000/svg" xmlns:xlink="http://www.w3.org/1999/xlink" width="40pt" height="40pt" viewBox="0 0 40 40" version="1.1">
<g id="surface1">
<path style=" stroke:none;fill-rule:nonzero;fill:rgb(83.137255%,76.470588%,50.980392%);fill-opacity:1;" d="M 30.550781 19.644531 L 33.339844 19.644531 C 33.96875 19.644531 34.480469 19.132812 34.480469 18.5 L 34.480469 15.710938 C 34.480469 15.082031 33.96875 14.566406 33.339844 14.566406 L 30.550781 14.566406 C 29.917969 14.566406 29.402344 15.082031 29.402344 15.710938 L 29.402344 18.5 C 29.402344 19.132812 29.917969 19.644531 30.550781 19.644531 Z M 30.574219 15.738281 L 33.308594 15.738281 L 33.308594 18.472656 L 30.574219 18.472656 Z M 30.550781 27.066406 L 33.339844 27.066406 C 33.96875 27.066406 34.480469 26.554688 34.480469 25.921875 L 34.480469 23.132812 C 34.480469 22.503906 33.96875 21.988281 33.339844 21.988281 L 30.550781 21.988281 C 29.917969 21.988281 29.402344 22.503906 29.402344 23.132812 L 29.402344 25.921875 C 29.402344 26.554688 29.917969 27.066406 30.550781 27.066406 Z M 30.574219 23.160156 L 33.308594 23.160156 L 33.308594 25.894531 L 30.574219 25.894531 Z M 22.585938 19.644531 L 25.375 19.644531 C 26.007812 19.644531 26.519531 19.132812 26.519531 18.5 L 26.519531 15.710938 C 26.519531 15.082031 26.007812 14.566406 25.375 14.566406 L 22.585938 14.566406 C 21.957031 14.566406 21.441406 15.082031 21.441406 15.710938 L 21.441406 18.5 C 21.441406 19.132812 21.957031 19.644531 22.585938 19.644531 Z M 22.613281 15.738281 L 25.347656 15.738281 L 25.347656 18.472656 L 22.613281 18.472656 Z M 9.449219 29.0625 L 6.660156 29.0625 C 6.03125 29.0625 5.519531 29.574219 5.519531 30.207031 L 5.519531 32.996094 C 5.519531 33.628906 6.03125 34.140625 6.660156 34.140625 L 9.449219 34.140625 C 10.082031 34.140625 10.597656 33.628906 10.597656 32.996094 L 10.597656 30.207031 C 10.597656 29.574219 10.082031 29.0625 9.449219 29.0625 Z M 9.425781 32.96875 L 6.691406 32.96875 L 6.691406 30.234375 L 9.425781 30.234375 Z M 9.449219 14.566406 L 6.660156 14.566406 C 6.03125 14.566406 5.519531 15.082031 5.519531 15.710938 L 5.519531 18.5 C 5.519531 19.132812 6.03125 19.644531 6.660156 19.644531 L 9.449219 19.644531 C 10.082031 19.644531 10.597656 19.132812 10.597656 18.5 L 10.597656 15.710938 C 10.597656 15.082031 10.082031 14.566406 9.449219 14.566406 Z M 9.425781 18.472656 L 6.691406 18.472656 L 6.691406 15.738281 L 9.425781 15.738281 Z M 22.585938 26.894531 L 25.375 26.894531 C 26.007812 26.894531 26.519531 26.378906 26.519531 25.75 L 26.519531 22.957031 C 26.519531 22.328125 26.007812 21.816406 25.375 21.816406 L 22.585938 21.816406 C 21.957031 21.816406 21.441406 22.328125 21.441406 22.957031 L 21.441406 25.75 C 21.441406 26.378906 21.957031 26.894531 22.585938 26.894531 Z M 22.613281 22.988281 L 25.347656 22.988281 L 25.347656 25.722656 L 22.613281 25.722656 Z M 35.066406 2.675781 L 32.558594 2.675781 L 32.558594 1.78125 C 32.558594 0.800781 31.761719 0 30.777344 0 L 30.507812 0 C 29.527344 0 28.726562 0.800781 28.726562 1.78125 L 28.726562 2.675781 L 11.273438 2.675781 L 11.273438 1.78125 C 11.273438 0.800781 10.472656 0 9.492188 0 L 9.222656 0 C 8.238281 0 7.441406 0.800781 7.441406 1.78125 L 7.441406 2.675781 L 4.933594 2.675781 C 3.316406 2.675781 2.003906 3.996094 2.003906 5.613281 L 2.003906 37.070312 C 2.003906 38.683594 3.316406 40 4.933594 40 L 35.066406 40 C 36.683594 40 37.996094 38.683594 37.996094 37.070312 L 37.996094 5.613281 C 37.996094 3.996094 36.683594 2.675781 35.066406 2.675781 Z M 29.898438 1.78125 C 29.898438 1.445312 30.171875 1.171875 30.507812 1.171875 L 30.777344 1.171875 C 31.113281 1.171875 31.386719 1.445312 31.386719 1.78125 L 31.386719 2.675781 L 29.898438 2.675781 Z M 8.613281 1.78125 C 8.613281 1.445312 8.886719 1.171875 9.222656 1.171875 L 9.492188 1.171875 C 9.828125 1.171875 10.101562 1.445312 10.101562 1.78125 L 10.101562 2.675781 L 8.613281 2.675781 Z M 36.824219 37.070312 C 36.824219 38.039062 36.035156 38.828125 35.066406 38.828125 L 4.933594 38.828125 C 3.964844 38.828125 3.175781 38.039062 3.175781 37.070312 L 3.175781 37.066406 C 3.664062 37.4375 4.277344 37.65625 4.933594 37.65625 L 28.691406 37.65625 C 29.476562 37.65625 30.214844 37.351562 30.765625 36.796875 L 36.824219 30.738281 Z M 30.167969 35.738281 C 30.214844 35.546875 30.238281 35.347656 30.238281 35.144531 L 30.238281 31.234375 C 30.238281 30.496094 30.839844 29.898438 31.578125 29.898438 L 35.488281 29.898438 C 35.691406 29.898438 35.890625 29.871094 36.078125 29.828125 Z M 36.824219 11.050781 L 11.859375 11.050781 C 11.535156 11.050781 11.273438 11.3125 11.273438 11.636719 C 11.273438 11.960938 11.535156 12.222656 11.859375 12.222656 L 36.824219 12.222656 L 36.824219 27.386719 C 36.824219 28.125 36.226562 28.726562 35.488281 28.726562 L 31.578125 28.726562 C 30.191406 28.726562 29.066406 29.851562 29.066406 31.234375 L 29.066406 35.144531 C 29.066406 35.886719 28.46875 36.484375 27.730469 36.484375 L 4.933594 36.484375 C 3.964844 36.484375 3.175781 35.695312 3.175781 34.722656 L 3.175781 12.222656 L 9.515625 12.222656 C 9.839844 12.222656 10.101562 11.960938 10.101562 11.636719 C 10.101562 11.3125 9.839844 11.050781 9.515625 11.050781 L 3.175781 11.050781 L 3.175781 5.613281 C 3.175781 4.640625 3.964844 3.847656 4.933594 3.847656 L 7.441406 3.847656 L 7.441406 5.574219 C 7.441406 6.554688 8.238281 7.355469 9.222656 7.355469 C 9.546875 7.355469 9.808594 7.089844 9.808594 6.769531 C 9.808594 6.445312 9.546875 6.183594 9.222656 6.183594 C 8.886719 6.183594 8.613281 5.910156 8.613281 5.574219 L 8.613281 3.847656 L 28.726562 3.847656 L 28.726562 5.574219 C 28.726562 6.554688 29.527344 7.355469 30.507812 7.355469 C 30.832031 7.355469 31.09375 7.089844 31.09375 6.769531 C 31.09375 6.445312 30.832031 6.183594 30.507812 6.183594 C 30.171875 6.183594 29.898438 5.910156 29.898438 5.574219 L 29.898438 3.847656 L 35.066406 3.847656 C 36.035156 3.847656 36.824219 4.640625 36.824219 5.613281 Z M 9.449219 21.816406 L 6.660156 21.816406 C 6.03125 21.816406 5.519531 22.328125 5.519531 22.957031 L 5.519531 25.75 C 5.519531 26.378906 6.03125 26.894531 6.660156 26.894531 L 9.449219 26.894531 C 10.082031 26.894531 10.597656 26.378906 10.597656 25.75 L 10.597656 22.957031 C 10.597656 22.328125 10.082031 21.816406 9.449219 21.816406 Z M 9.425781 25.722656 L 6.691406 25.722656 L 6.691406 22.988281 L 9.425781 22.988281 Z M 14.625 19.644531 L 17.414062 19.644531 C 18.042969 19.644531 18.558594 19.132812 18.558594 18.5 L 18.558594 15.710938 C 18.558594 15.082031 18.042969 14.566406 17.414062 14.566406 L 14.625 14.566406 C 13.992188 14.566406 13.480469 15.082031 13.480469 15.710938 L 13.480469 18.5 C 13.480469 19.132812 13.992188 19.644531 14.625 19.644531 Z M 14.652344 15.738281 L 17.386719 15.738281 L 17.386719 18.472656 L 14.652344 18.472656 Z M 22.613281 32.96875 C 22.597656 32.660156 22.339844 32.410156 22.027344 32.410156 C 21.703125 32.410156 21.441406 32.671875 21.441406 32.996094 C 21.441406 33.628906 21.957031 34.140625 22.585938 34.140625 L 25.375 34.140625 C 26.007812 34.140625 26.519531 33.628906 26.519531 32.996094 L 26.519531 30.207031 C 26.519531 29.574219 26.007812 29.0625 25.375 29.0625 L 22.585938 29.0625 C 21.957031 29.0625 21.441406 29.574219 21.441406 30.207031 L 21.441406 31.011719 C 21.441406 31.335938 21.703125 31.597656 22.027344 31.597656 C 22.351562 31.597656 22.613281 31.335938 22.613281 31.011719 L 22.613281 30.234375 L 25.347656 30.234375 L 25.347656 32.96875 Z M 14.625 26.894531 L 17.414062 26.894531 C 18.042969 26.894531 18.558594 26.378906 18.558594 25.75 L 18.558594 22.957031 C 18.558594 22.328125 18.042969 21.816406 17.414062 21.816406 L 14.625 21.816406 C 13.992188 21.816406 13.480469 22.328125 13.480469 22.957031 L 13.480469 25.75 C 13.480469 26.378906 13.992188 26.894531 14.625 26.894531 Z M 14.652344 22.988281 L 17.386719 22.988281 L 17.386719 25.722656 L 14.652344 25.722656 Z M 14.625 34.140625 L 17.414062 34.140625 C 18.042969 34.140625 18.558594 33.628906 18.558594 32.996094 L 18.558594 30.207031 C 18.558594 29.574219 18.042969 29.0625 17.414062 29.0625 L 14.625 29.0625 C 13.992188 29.0625 13.480469 29.574219 13.480469 30.207031 L 13.480469 32.996094 C 13.480469 33.628906 13.992188 34.140625 14.625 34.140625 Z M 14.652344 30.234375 L 17.386719 30.234375 L 17.386719 32.96875 L 14.652344 32.96875 Z M 14.652344 30.234375 "/>
</g>
</svg>
