<?xml version="1.0" encoding="UTF-8"?>
<svg xmlns="http://www.w3.org/2000/svg" xmlns:xlink="http://www.w3.org/1999/xlink" width="40pt" height="40pt" viewBox="0 0 40 40" version="1.1">
<g id="surface1">
<path style=" stroke:none;fill-rule:nonzero;fill:rgb(84.313725%,76.470588%,47.058824%);fill-opacity:1;" d="M 15.707031 22.34375 C 16.140625 22.34375 16.492188 21.992188 16.492188 21.5625 C 16.492188 21.128906 16.140625 20.78125 15.707031 20.78125 C 15.269531 20.78125 14.917969 21.128906 14.917969 21.5625 C 14.917969 21.992188 15.269531 22.34375 15.707031 22.34375 Z M 15.707031 22.34375 "/>
<path style=" stroke:none;fill-rule:nonzero;fill:rgb(84.313725%,76.470588%,47.058824%);fill-opacity:1;" d="M 14.917969 14.667969 C 16.21875 14.667969 17.277344 13.613281 17.277344 12.324219 C 17.277344 11.03125 16.21875 9.980469 14.917969 9.980469 C 13.621094 9.980469 12.5625 11.03125 12.5625 12.324219 C 12.5625 13.613281 13.621094 14.667969 14.917969 14.667969 Z M 14.917969 11.542969 C 15.355469 11.542969 15.707031 11.894531 15.707031 12.324219 C 15.707031 12.753906 15.355469 13.105469 14.917969 13.105469 C 14.488281 13.105469 14.132812 12.753906 14.132812 12.324219 C 14.132812 11.894531 14.488281 11.542969 14.917969 11.542969 Z M 14.917969 11.542969 "/>
<path style=" stroke:none;fill-rule:nonzero;fill:rgb(84.313725%,76.470588%,47.058824%);fill-opacity:1;" d="M 33.949219 24.140625 L 33.164062 24.140625 L 33.164062 22.578125 C 33.164062 21.714844 32.457031 21.015625 31.589844 21.015625 L 28.449219 21.015625 C 27.582031 21.015625 26.878906 21.714844 26.878906 22.578125 L 26.878906 24.140625 L 26.089844 24.140625 C 24.792969 24.140625 23.734375 25.191406 23.734375 26.484375 L 23.734375 30.390625 C 23.734375 31.683594 24.792969 32.734375 26.089844 32.734375 L 33.949219 32.734375 C 35.25 32.734375 36.308594 31.683594 36.308594 30.390625 L 36.308594 26.484375 C 36.308594 25.191406 35.25 24.140625 33.949219 24.140625 Z M 28.449219 22.578125 L 31.589844 22.578125 L 31.589844 24.140625 L 28.449219 24.140625 Z M 26.089844 31.171875 C 25.660156 31.171875 25.304688 30.820312 25.304688 30.390625 L 25.304688 26.484375 C 25.304688 26.050781 25.660156 25.703125 26.089844 25.703125 L 26.878906 25.703125 L 26.878906 31.171875 Z M 28.449219 31.171875 L 28.449219 25.703125 L 31.589844 25.703125 L 31.589844 31.171875 Z M 34.734375 30.390625 C 34.734375 30.820312 34.382812 31.171875 33.949219 31.171875 L 33.164062 31.171875 L 33.164062 25.703125 L 33.949219 25.703125 C 34.382812 25.703125 34.734375 26.050781 34.734375 26.484375 Z M 34.734375 30.390625 "/>
<path style=" stroke:none;fill-rule:nonzero;fill:rgb(84.313725%,76.470588%,47.058824%);fill-opacity:1;" d="M 30.019531 17.65625 C 28.796875 17.65625 27.625 17.871094 26.535156 18.261719 L 26.535156 15.703125 C 26.832031 15.832031 27.152344 15.902344 27.480469 15.902344 C 27.601562 15.902344 27.722656 15.894531 27.84375 15.875 C 28.464844 15.777344 29.011719 15.449219 29.382812 14.945312 C 29.753906 14.441406 29.90625 13.824219 29.8125 13.207031 C 29.714844 12.585938 29.382812 12.042969 28.878906 11.675781 L 16.347656 2.507812 C 15.519531 1.882812 14.363281 1.871094 13.527344 2.484375 L 10.09375 4.996094 C 9.742188 5.253906 9.667969 5.738281 9.925781 6.089844 C 10.183594 6.433594 10.675781 6.511719 11.023438 6.253906 L 14.457031 3.742188 C 14.738281 3.539062 15.121094 3.542969 15.394531 3.753906 C 15.402344 3.753906 15.402344 3.761719 15.410156 3.761719 L 27.949219 12.933594 C 28.117188 13.058594 28.226562 13.238281 28.257812 13.441406 C 28.289062 13.648438 28.238281 13.855469 28.113281 14.019531 C 27.992188 14.1875 27.808594 14.296875 27.605469 14.332031 C 27.398438 14.363281 27.191406 14.308594 27.023438 14.191406 L 15.386719 5.675781 C 15.109375 5.472656 14.730469 5.472656 14.453125 5.675781 L 2.816406 14.1875 C 2.648438 14.3125 2.441406 14.363281 2.234375 14.332031 C 2.027344 14.296875 1.847656 14.1875 1.722656 14.019531 C 1.597656 13.855469 1.550781 13.648438 1.582031 13.441406 C 1.613281 13.238281 1.722656 13.058594 1.894531 12.933594 L 5.328125 10.421875 C 5.675781 10.167969 5.753906 9.675781 5.496094 9.328125 C 5.238281 8.980469 4.746094 8.90625 4.394531 9.164062 L 0.964844 11.675781 C 0.457031 12.042969 0.121094 12.585938 0.0273438 13.207031 C -0.0664062 13.824219 0.0820312 14.441406 0.457031 14.945312 C 0.828125 15.449219 1.375 15.777344 1.996094 15.875 C 2.445312 15.941406 2.894531 15.882812 3.300781 15.703125 L 3.300781 26.25 C 3.300781 26.679688 3.652344 27.03125 4.089844 27.03125 L 19.832031 27.03125 C 19.816406 27.289062 19.804688 27.550781 19.804688 27.8125 C 19.804688 33.410156 24.386719 37.96875 30.019531 37.96875 C 35.652344 37.96875 40.238281 33.410156 40.238281 27.8125 C 40.238281 22.210938 35.652344 17.65625 30.019531 17.65625 Z M 4.875 14.621094 L 14.917969 7.277344 L 24.964844 14.621094 L 24.964844 18.988281 C 24.40625 19.304688 23.878906 19.675781 23.394531 20.089844 L 23.394531 18.4375 C 23.394531 18.003906 23.042969 17.65625 22.605469 17.65625 L 18.847656 17.65625 L 18.847656 17.652344 C 18.847656 16.792969 18.144531 16.089844 17.277344 16.089844 L 12.5625 16.089844 C 11.695312 16.089844 10.988281 16.792969 10.988281 17.652344 L 10.988281 17.65625 L 7.230469 17.65625 C 6.796875 17.65625 6.445312 18.003906 6.445312 18.4375 L 6.445312 23.082031 C 6.445312 23.511719 6.796875 23.863281 7.230469 23.863281 L 10.988281 23.863281 L 10.988281 25.46875 L 4.875 25.46875 Z M 10.988281 22.300781 L 8.019531 22.300781 L 8.019531 19.21875 L 10.988281 19.21875 Z M 17.277344 25.46875 L 12.5625 25.46875 L 12.5625 17.65625 L 17.277344 17.65625 Z M 18.847656 19.21875 L 21.824219 19.21875 L 21.824219 21.757812 C 21.679688 21.949219 21.542969 22.144531 21.414062 22.34375 L 18.847656 22.34375 Z M 18.847656 25.46875 L 18.847656 23.902344 L 20.589844 23.902344 C 20.378906 24.40625 20.207031 24.929688 20.078125 25.46875 Z M 30.019531 36.40625 C 25.253906 36.40625 21.375 32.550781 21.375 27.8125 C 21.375 23.074219 25.253906 19.21875 30.019531 19.21875 C 34.785156 19.21875 38.664062 23.074219 38.664062 27.8125 C 38.664062 32.550781 34.785156 36.40625 30.019531 36.40625 Z M 30.019531 36.40625 "/>
<path style=" stroke:none;fill-rule:nonzero;fill:rgb(84.313725%,76.470588%,47.058824%);fill-opacity:1;" d="M 7.710938 8.488281 C 8.144531 8.488281 8.496094 8.140625 8.496094 7.707031 C 8.496094 7.277344 8.144531 6.925781 7.710938 6.925781 L 7.707031 6.925781 C 7.277344 6.925781 6.925781 7.277344 6.925781 7.707031 C 6.925781 8.140625 7.277344 8.488281 7.710938 8.488281 Z M 7.710938 8.488281 "/>
</g>
</svg>
