<svg xmlns="http://www.w3.org/2000/svg" viewBox="0 0 40 40" width="53" height="53">
	<style>
		tspan { white-space:pre }
		.shp1 { fill: #00B460 } 
	</style>
	<g >
		<path fill-rule="evenodd" class="shp1" d="M16.48 13.68L16.48 16.09C16.48 16.7 15.98 17.2 15.37 17.2L8.17 17.2C7.55 17.2 7.05 16.7 7.05 16.09L7.05 13.68C7.05 13.06 7.55 12.56 8.17 12.56L15.37 12.56C15.98 12.56 16.48 13.06 16.48 13.68ZM15.31 13.73L8.22 13.73L8.22 16.03L15.31 16.03L15.31 13.73Z" />
		<path fill-rule="evenodd" class="shp1" d="M37.47 29.35L37.47 31.29C37.47 33.12 35.98 34.61 34.15 34.61L26.19 34.6C25.86 34.6 25.6 34.34 25.6 34.01C25.6 33.69 25.86 33.43 26.19 33.43L34.15 33.43C35.33 33.43 36.3 32.47 36.3 31.29L36.3 30.39C34.86 31.46 33.15 32.07 31.32 32.17C29.75 32.25 28.18 31.93 26.75 31.21L21.85 36.64C20.95 37.64 19.41 37.71 18.42 36.82C17.94 36.38 17.65 35.79 17.62 35.14C17.59 34.49 17.81 33.86 18.24 33.38L23.14 27.95C20.99 24.57 21.25 20.03 24.07 16.91C27.25 13.38 32.58 12.92 36.31 15.7L36.32 10.95C36.32 10.44 35.91 10.04 35.4 10.04L34.34 10.03L5.25 10C5 10 4.78 10.1 4.61 10.27C4.43 10.44 4.34 10.67 4.33 10.91L4.31 32.41C4.31 32.76 4.23 33.11 4.07 33.42L15.71 33.43C16.04 33.43 16.3 33.69 16.3 34.01C16.3 34.33 16.04 34.6 15.71 34.6L2.23 34.59C0.96 34.61 0 33.58 0 32.4L0 5.36C0 4.61 0.3 3.91 0.83 3.38C1.36 2.85 2.06 2.56 2.81 2.56L10.65 2.56C11.81 2.56 12.89 3.14 13.54 4.11L13.93 4.69C14.36 5.33 15.07 5.71 15.85 5.71L32.84 5.71C33.99 5.71 34.93 6.65 34.93 7.8L34.93 8.86L35.41 8.86C36.56 8.86 37.49 9.8 37.49 10.95L37.48 16.73C40.8 20.21 40.89 25.78 37.47 29.35ZM33.75 8.86L33.75 7.8C33.75 7.29 33.34 6.89 32.84 6.89L15.85 6.89C14.68 6.89 13.61 6.31 12.96 5.34L12.57 4.75C12.14 4.12 11.42 3.73 10.65 3.73L2.81 3.73C2.38 3.73 1.96 3.9 1.66 4.21C1.35 4.52 1.18 4.93 1.18 5.36L1.17 32.4C1.17 32.95 1.61 33.4 2.16 33.41C2.7 33.41 3.14 32.96 3.14 32.41L3.16 10.91C3.16 10.36 3.38 9.83 3.78 9.44C4.17 9.04 4.69 8.83 5.25 8.83L33.75 8.86ZM25.72 30.61C25.03 30.13 24.4 29.56 23.86 28.92L19.11 34.17C18.65 34.68 18.69 35.48 19.2 35.95C19.72 36.41 20.52 36.37 20.98 35.86L25.72 30.61ZM36.2 17.12C34.68 15.75 32.77 15.07 30.86 15.07C22.78 15.07 19.8 25.9 26.91 29.96C26.92 29.97 26.93 29.97 26.93 29.98C28.24 30.72 29.73 31.07 31.27 31C38.34 30.64 41.44 21.85 36.2 17.12Z" />
		<path class="shp1" d="M35.22 18.2C34.29 17.36 33.15 16.81 31.92 16.61C31.6 16.55 31.3 16.77 31.25 17.09C31.2 17.41 31.41 17.71 31.73 17.76C32.74 17.93 33.68 18.38 34.44 19.07C38.06 22.34 35.74 28.38 30.86 28.38C28.03 28.38 25.67 26.17 25.52 23.31C25.39 20.79 27.02 18.64 29.25 17.94C29.56 17.84 29.73 17.51 29.64 17.21C29.54 16.89 29.21 16.72 28.9 16.82C26.18 17.68 24.2 20.29 24.36 23.37C24.54 26.89 27.44 29.55 30.85 29.55C36.83 29.55 39.61 22.16 35.22 18.2Z" />
	</g>
</svg>