<svg xmlns="http://www.w3.org/2000/svg" viewBox="0 0 40 40" width="53" height="53">
	<style>
		tspan { white-space:pre }
		.shp0 { fill: #17B7B0 } 
	</style>
	<g id="surface1">
		<path id="Layer" fill-rule="evenodd" class="shp0" d="M38 5.61L38 37.07C38 38.68 36.68 40 35.07 40L4.93 40C3.32 40 2 38.68 2 37.07L2 5.61C2 4 3.32 2.68 4.93 2.68L7.44 2.68L7.44 1.78C7.44 0.8 8.24 0 9.22 0L9.49 0C10.47 0 11.27 0.8 11.27 1.78L11.27 2.68L28.73 2.68L28.73 1.78C28.73 0.8 29.53 0 30.51 0L30.78 0C31.76 0 32.56 0.8 32.56 1.78L32.56 2.68L35.07 2.68C36.68 2.68 38 4 38 5.61ZM36.82 5.61C36.82 4.64 36.04 3.85 35.07 3.85L29.9 3.85L29.9 5.57C29.9 5.91 30.17 6.18 30.51 6.18C30.83 6.18 31.09 6.45 31.09 6.77C31.09 7.09 30.83 7.36 30.51 7.36C29.53 7.36 28.73 6.55 28.73 5.57L28.73 3.85L8.61 3.85L8.61 5.57C8.61 5.91 8.89 6.18 9.22 6.18C9.55 6.18 9.81 6.45 9.81 6.77C9.81 7.09 9.55 7.36 9.22 7.36C8.24 7.36 7.44 6.55 7.44 5.57L7.44 3.85L4.93 3.85C3.96 3.85 3.18 4.64 3.18 5.61L3.18 11.05L9.52 11.05C9.84 11.05 10.1 11.31 10.1 11.64C10.1 11.96 9.84 12.22 9.52 12.22L3.18 12.22L3.18 34.72C3.18 35.7 3.96 36.48 4.93 36.48L27.73 36.48C28.47 36.48 29.07 35.89 29.07 35.14L29.07 31.23C29.07 29.85 30.19 28.73 31.58 28.73L35.49 28.73C36.23 28.73 36.82 28.13 36.82 27.39L36.82 12.22L11.86 12.22C11.54 12.22 11.27 11.96 11.27 11.64C11.27 11.31 11.54 11.05 11.86 11.05L36.82 11.05L36.82 5.61ZM29.4 25.92L29.4 23.13C29.4 22.5 29.92 21.99 30.55 21.99L33.34 21.99C33.97 21.99 34.48 22.5 34.48 23.13L34.48 25.92C34.48 26.55 33.97 27.07 33.34 27.07L30.55 27.07C29.92 27.07 29.4 26.55 29.4 25.92ZM30.57 25.89L33.31 25.89L33.31 23.16L30.57 23.16L30.57 25.89ZM21.44 18.5L21.44 15.71C21.44 15.08 21.96 14.57 22.59 14.57L25.38 14.57C26.01 14.57 26.52 15.08 26.52 15.71L26.52 18.5C26.52 19.13 26.01 19.64 25.38 19.64L22.59 19.64C21.96 19.64 21.44 19.13 21.44 18.5ZM22.61 18.47L25.35 18.47L25.35 15.74L22.61 15.74L22.61 18.47ZM10.6 30.21L10.6 33C10.6 33.63 10.08 34.14 9.45 34.14L6.66 34.14C6.03 34.14 5.52 33.63 5.52 33L5.52 30.21C5.52 29.57 6.03 29.06 6.66 29.06L9.45 29.06C10.08 29.06 10.6 29.57 10.6 30.21ZM9.43 30.23L6.69 30.23L6.69 32.97L9.43 32.97L9.43 30.23ZM10.6 15.71L10.6 18.5C10.6 19.13 10.08 19.64 9.45 19.64L6.66 19.64C6.03 19.64 5.52 19.13 5.52 18.5L5.52 15.71C5.52 15.08 6.03 14.57 6.66 14.57L9.45 14.57C10.08 14.57 10.6 15.08 10.6 15.71ZM9.43 15.74L6.69 15.74L6.69 18.47L9.43 18.47L9.43 15.74ZM21.44 25.75L21.44 22.96C21.44 22.33 21.96 21.82 22.59 21.82L25.38 21.82C26.01 21.82 26.52 22.33 26.52 22.96L26.52 25.75C26.52 26.38 26.01 26.89 25.38 26.89L22.59 26.89C21.96 26.89 21.44 26.38 21.44 25.75ZM22.61 25.72L25.35 25.72L25.35 22.99L22.61 22.99L22.61 25.72ZM29.4 18.5L29.4 15.71C29.4 15.08 29.92 14.57 30.55 14.57L33.34 14.57C33.97 14.57 34.48 15.08 34.48 15.71L34.48 18.5C34.48 19.13 33.97 19.64 33.34 19.64L30.55 19.64C29.92 19.64 29.4 19.13 29.4 18.5ZM29.9 2.68L31.39 2.68L31.39 1.78C31.39 1.45 31.11 1.17 30.78 1.17L30.51 1.17C30.17 1.17 29.9 1.45 29.9 1.78L29.9 2.68ZM8.61 2.68L10.1 2.68L10.1 1.78C10.1 1.45 9.83 1.17 9.49 1.17L9.22 1.17C8.89 1.17 8.61 1.45 8.61 1.78L8.61 2.68ZM36.82 30.74L30.77 36.8C30.21 37.35 29.48 37.66 28.69 37.66L4.93 37.66C4.28 37.66 3.66 37.44 3.18 37.07C3.18 38.04 3.96 38.83 4.93 38.83L35.07 38.83C36.04 38.83 36.82 38.04 36.82 37.07L36.82 30.74ZM36.08 29.83C35.89 29.87 35.69 29.9 35.49 29.9L31.58 29.9C30.84 29.9 30.24 30.5 30.24 31.23L30.24 35.14C30.24 35.35 30.21 35.55 30.17 35.74L36.08 29.83ZM30.57 18.47L33.31 18.47L33.31 15.74L30.57 15.74L30.57 18.47ZM10.6 22.96L10.6 25.75C10.6 26.38 10.08 26.89 9.45 26.89L6.66 26.89C6.03 26.89 5.52 26.38 5.52 25.75L5.52 22.96C5.52 22.33 6.03 21.82 6.66 21.82L9.45 21.82C10.08 21.82 10.6 22.33 10.6 22.96ZM9.43 22.99L6.69 22.99L6.69 25.72L9.43 25.72L9.43 22.99ZM13.48 18.5L13.48 15.71C13.48 15.08 13.99 14.57 14.63 14.57L17.41 14.57C18.04 14.57 18.56 15.08 18.56 15.71L18.56 18.5C18.56 19.13 18.04 19.64 17.41 19.64L14.63 19.64C13.99 19.64 13.48 19.13 13.48 18.5ZM14.65 18.47L17.39 18.47L17.39 15.74L14.65 15.74L14.65 18.47ZM25.35 32.97L25.35 30.23L22.61 30.23L22.61 31.01C22.61 31.34 22.35 31.6 22.03 31.6C21.7 31.6 21.44 31.34 21.44 31.01L21.44 30.21C21.44 29.57 21.96 29.06 22.59 29.06L25.38 29.06C26.01 29.06 26.52 29.57 26.52 30.21L26.52 33C26.52 33.63 26.01 34.14 25.38 34.14L22.59 34.14C21.96 34.14 21.44 33.63 21.44 33C21.44 32.67 21.7 32.41 22.03 32.41C22.34 32.41 22.6 32.66 22.61 32.97L25.35 32.97ZM13.48 25.75L13.48 22.96C13.48 22.33 13.99 21.82 14.63 21.82L17.41 21.82C18.04 21.82 18.56 22.33 18.56 22.96L18.56 25.75C18.56 26.38 18.04 26.89 17.41 26.89L14.63 26.89C13.99 26.89 13.48 26.38 13.48 25.75ZM14.65 25.72L17.39 25.72L17.39 22.99L14.65 22.99L14.65 25.72ZM13.48 33L13.48 30.21C13.48 29.57 13.99 29.06 14.63 29.06L17.41 29.06C18.04 29.06 18.56 29.57 18.56 30.21L18.56 33C18.56 33.63 18.04 34.14 17.41 34.14L14.63 34.14C13.99 34.14 13.48 33.63 13.48 33ZM14.65 32.97L17.39 32.97L17.39 30.23L14.65 30.23L14.65 32.97Z" />
	</g>
</svg>