<?xml version="1.0" encoding="UTF-8"?>
<svg xmlns="http://www.w3.org/2000/svg" xmlns:xlink="http://www.w3.org/1999/xlink" width="40pt" height="40pt" viewBox="0 0 40 40" version="1.1">
<g id="surface1">
<path style=" stroke:none;fill-rule:nonzero;fill:rgb(83.137255%,76.470588%,50.980392%);fill-opacity:1;" d="M 22.667969 37.332031 C 30.765625 37.332031 37.332031 30.765625 37.332031 22.664062 C 37.332031 14.566406 30.765625 8 22.667969 8 C 14.566406 8 8 14.566406 8 22.664062 C 8.011719 30.761719 14.570312 37.320312 22.667969 37.332031 Z M 11.332031 21.996094 L 9.367188 21.996094 C 9.714844 15.171875 15.171875 9.714844 22 9.367188 L 22 11.332031 C 22 11.699219 22.296875 12 22.667969 12 C 23.035156 12 23.332031 11.699219 23.332031 11.332031 L 23.332031 9.367188 C 30.160156 9.714844 35.617188 15.171875 35.964844 21.996094 L 33.332031 21.996094 C 32.964844 21.996094 32.667969 22.296875 32.667969 22.664062 C 32.667969 23.035156 32.964844 23.332031 33.332031 23.332031 L 35.964844 23.332031 C 35.617188 30.160156 30.160156 35.613281 23.332031 35.964844 L 23.332031 33.996094 C 23.332031 33.628906 23.035156 33.332031 22.667969 33.332031 C 22.296875 33.332031 22 33.628906 22 33.996094 L 22 35.964844 C 15.171875 35.613281 9.714844 30.160156 9.367188 23.332031 L 11.332031 23.332031 C 11.703125 23.332031 12 23.035156 12 22.664062 C 12 22.296875 11.703125 21.996094 11.332031 21.996094 Z M 11.332031 21.996094 "/>
<path style=" stroke:none;fill-rule:nonzero;fill:rgb(83.137255%,76.470588%,50.980392%);fill-opacity:1;" d="M 37.675781 14.011719 C 37.476562 13.667969 37.265625 13.328125 37.042969 13 L 38.691406 11.355469 C 38.949219 11.09375 38.949219 10.671875 38.691406 10.410156 L 34.925781 6.644531 C 34.664062 6.382812 34.242188 6.382812 33.980469 6.644531 L 32.332031 8.285156 C 29.667969 6.488281 26.546875 5.46875 23.332031 5.347656 L 23.332031 1.332031 L 28 1.332031 C 28.367188 1.332031 28.667969 1.035156 28.667969 0.667969 C 28.667969 0.300781 28.367188 0 28 0 L 17.332031 0 C 16.964844 0 16.667969 0.300781 16.667969 0.667969 C 16.667969 1.035156 16.964844 1.332031 17.332031 1.332031 L 22 1.332031 L 22 5.355469 C 16.054688 5.582031 10.644531 8.847656 7.667969 14 L 4 14 C 3.632812 14 3.332031 14.296875 3.332031 14.667969 C 3.332031 15.035156 3.632812 15.332031 4 15.332031 L 8 15.332031 C 8.019531 15.332031 8.035156 15.324219 8.050781 15.324219 C 8.289062 15.324219 8.511719 15.199219 8.632812 14.988281 C 12.871094 7.238281 22.597656 4.390625 30.347656 8.632812 C 38.097656 12.875 40.941406 22.597656 36.703125 30.347656 C 32.460938 38.097656 22.738281 40.945312 14.988281 36.703125 C 12.304688 35.238281 10.097656 33.03125 8.632812 30.347656 C 8.511719 30.136719 8.292969 30.011719 8.050781 30.011719 C 8.035156 30.011719 8.019531 30 8 30 L 4 30 C 3.632812 30 3.332031 30.300781 3.332031 30.667969 C 3.332031 31.035156 3.632812 31.332031 4 31.332031 L 7.667969 31.332031 C 12.449219 39.621094 23.046875 42.460938 31.332031 37.675781 C 39.621094 32.894531 42.457031 22.296875 37.675781 14.011719 Z M 33.421875 9.089844 L 34.453125 8.058594 L 37.277344 10.882812 L 36.246094 11.914062 C 35.414062 10.867188 34.464844 9.917969 33.421875 9.089844 Z M 33.421875 9.089844 "/>
<path style=" stroke:none;fill-rule:nonzero;fill:rgb(83.137255%,76.470588%,50.980392%);fill-opacity:1;" d="M 6.667969 22.664062 C 6.667969 22.296875 6.371094 21.996094 6 21.996094 L 0.667969 21.996094 C 0.300781 21.996094 0 22.296875 0 22.664062 C 0 23.035156 0.300781 23.332031 0.667969 23.332031 L 6 23.332031 C 6.371094 23.332031 6.667969 23.035156 6.667969 22.664062 Z M 6.667969 22.664062 "/>
<path style=" stroke:none;fill-rule:nonzero;fill:rgb(83.137255%,76.470588%,50.980392%);fill-opacity:1;" d="M 2 19.332031 L 6.667969 19.332031 C 7.035156 19.332031 7.332031 19.035156 7.332031 18.664062 C 7.332031 18.296875 7.035156 17.996094 6.667969 17.996094 L 2 17.996094 C 1.632812 17.996094 1.332031 18.296875 1.332031 18.664062 C 1.332031 19.035156 1.632812 19.332031 2 19.332031 Z M 2 19.332031 "/>
<path style=" stroke:none;fill-rule:nonzero;fill:rgb(83.137255%,76.470588%,50.980392%);fill-opacity:1;" d="M 7.332031 26.664062 C 7.332031 26.296875 7.035156 25.996094 6.667969 25.996094 L 2 25.996094 C 1.632812 25.996094 1.332031 26.296875 1.332031 26.664062 C 1.332031 27.035156 1.632812 27.332031 2 27.332031 L 6.667969 27.332031 C 7.035156 27.332031 7.332031 27.035156 7.332031 26.664062 Z M 7.332031 26.664062 "/>
<path style=" stroke:none;fill-rule:nonzero;fill:rgb(83.137255%,76.470588%,50.980392%);fill-opacity:1;" d="M 20.863281 27.136719 C 21.121094 27.394531 21.542969 27.394531 21.804688 27.136719 L 31.070312 17.871094 C 31.324219 17.605469 31.316406 17.183594 31.054688 16.925781 C 30.796875 16.675781 30.386719 16.675781 30.128906 16.925781 L 21.332031 25.722656 L 17.367188 21.753906 C 17.101562 21.5 16.679688 21.507812 16.425781 21.769531 C 16.175781 22.03125 16.175781 22.441406 16.425781 22.699219 Z M 20.863281 27.136719 "/>
</g>
</svg>
