<?xml version="1.0" encoding="UTF-8"?>
<svg xmlns="http://www.w3.org/2000/svg" xmlns:xlink="http://www.w3.org/1999/xlink" width="40pt" height="40pt" viewBox="0 0 40 40" version="1.1">
<g id="surface1">
<path style=" stroke:none;fill-rule:nonzero;fill:rgb(83.137255%,76.470588%,50.980392%);fill-opacity:1;" d="M 15.367188 12.5625 L 8.167969 12.5625 C 7.550781 12.5625 7.050781 13.0625 7.050781 13.675781 L 7.050781 16.085938 C 7.050781 16.699219 7.550781 17.199219 8.167969 17.199219 L 15.367188 17.199219 C 15.980469 17.199219 16.480469 16.699219 16.480469 16.085938 L 16.480469 13.675781 C 16.480469 13.0625 15.980469 12.5625 15.367188 12.5625 Z M 15.308594 16.027344 L 8.222656 16.027344 L 8.222656 13.734375 L 15.308594 13.734375 Z M 15.308594 16.027344 "/>
<path style=" stroke:none;fill-rule:nonzero;fill:rgb(83.137255%,76.470588%,50.980392%);fill-opacity:1;" d="M 37.484375 16.730469 L 37.488281 10.949219 C 37.492188 9.796875 36.558594 8.863281 35.40625 8.863281 L 34.925781 8.863281 L 34.925781 7.800781 C 34.925781 6.648438 33.988281 5.714844 32.835938 5.714844 L 15.847656 5.714844 C 15.074219 5.714844 14.359375 5.332031 13.933594 4.691406 L 13.539062 4.105469 C 12.894531 3.136719 11.8125 2.5625 10.652344 2.5625 L 2.816406 2.558594 C 2.816406 2.558594 2.8125 2.558594 2.8125 2.558594 C 2.0625 2.558594 1.359375 2.847656 0.828125 3.378906 C 0.296875 3.910156 0.00390625 4.613281 0.00390625 5.363281 L 0 32.402344 C 0 33.578125 0.964844 34.605469 2.230469 34.589844 L 15.714844 34.597656 C 16.039062 34.597656 16.300781 34.332031 16.300781 34.011719 C 16.300781 33.6875 16.039062 33.425781 15.714844 33.425781 L 4.066406 33.417969 C 4.226562 33.109375 4.3125 32.761719 4.3125 32.40625 L 4.332031 10.914062 C 4.335938 10.667969 4.429688 10.441406 4.605469 10.269531 C 4.777344 10.097656 5.003906 10 5.25 10 L 34.335938 10.03125 L 34.339844 10.03125 L 35.402344 10.035156 C 35.910156 10.035156 36.316406 10.441406 36.316406 10.949219 L 36.3125 15.695312 C 32.578125 12.917969 27.253906 13.382812 24.070312 16.910156 C 21.253906 20.027344 20.992188 24.566406 23.144531 27.949219 L 18.242188 33.382812 C 17.808594 33.863281 17.585938 34.488281 17.621094 35.136719 C 17.652344 35.785156 17.9375 36.382812 18.417969 36.816406 C 19.414062 37.714844 20.949219 37.636719 21.851562 36.640625 L 26.753906 31.210938 C 28.183594 31.933594 29.753906 32.25 31.324219 32.167969 C 33.152344 32.074219 34.863281 31.457031 36.300781 30.390625 L 36.296875 31.285156 C 36.296875 32.46875 35.332031 33.433594 34.152344 33.433594 C 34.152344 33.433594 34.148438 33.433594 34.148438 33.433594 L 26.1875 33.425781 C 25.863281 33.425781 25.601562 33.6875 25.601562 34.011719 C 25.601562 34.335938 25.863281 34.597656 26.1875 34.597656 L 34.148438 34.605469 L 34.152344 34.605469 C 35.980469 34.605469 37.46875 33.117188 37.472656 31.289062 L 37.472656 29.351562 C 40.886719 25.777344 40.796875 20.207031 37.484375 16.730469 Z M 5.25 8.828125 C 4.691406 8.828125 4.167969 9.042969 3.777344 9.4375 C 3.378906 9.832031 3.164062 10.355469 3.160156 10.910156 L 3.140625 32.40625 C 3.140625 32.960938 2.699219 33.410156 2.15625 33.414062 C 1.613281 33.398438 1.171875 32.949219 1.171875 32.402344 L 1.175781 5.363281 C 1.175781 4.925781 1.347656 4.515625 1.65625 4.207031 C 1.964844 3.898438 2.375 3.730469 2.8125 3.730469 L 2.816406 3.730469 L 10.652344 3.734375 C 11.421875 3.734375 12.136719 4.117188 12.566406 4.753906 L 12.957031 5.34375 C 13.605469 6.308594 14.683594 6.886719 15.847656 6.886719 L 32.835938 6.886719 C 33.339844 6.886719 33.753906 7.292969 33.753906 7.800781 L 33.753906 8.859375 Z M 20.980469 35.855469 C 20.515625 36.371094 19.722656 36.414062 19.203125 35.949219 C 18.6875 35.480469 18.648438 34.683594 19.113281 34.167969 L 23.855469 28.917969 C 24.398438 29.5625 25.027344 30.128906 25.722656 30.605469 Z M 31.265625 30.996094 C 29.730469 31.074219 28.238281 30.71875 26.933594 29.976562 C 26.925781 29.972656 26.917969 29.96875 26.910156 29.964844 C 19.804688 25.902344 22.777344 15.066406 30.863281 15.066406 C 32.769531 15.066406 34.679688 15.746094 36.203125 17.117188 C 41.441406 21.847656 38.339844 30.636719 31.265625 30.996094 Z M 31.265625 30.996094 "/>
<path style=" stroke:none;fill-rule:nonzero;fill:rgb(83.137255%,76.470588%,50.980392%);fill-opacity:1;" d="M 35.222656 18.199219 C 34.292969 17.363281 33.152344 16.808594 31.921875 16.605469 C 31.601562 16.554688 31.300781 16.769531 31.25 17.089844 C 31.195312 17.410156 31.414062 17.710938 31.730469 17.761719 C 32.738281 17.929688 33.675781 18.382812 34.441406 19.070312 C 38.058594 22.339844 35.738281 28.378906 30.855469 28.375 C 28.027344 28.375 25.667969 26.167969 25.523438 23.308594 C 25.394531 20.792969 27.015625 18.644531 29.25 17.941406 C 29.558594 17.84375 29.730469 17.511719 29.636719 17.207031 C 29.535156 16.894531 29.207031 16.722656 28.898438 16.824219 C 26.179688 17.675781 24.195312 20.292969 24.355469 23.367188 C 24.535156 26.886719 27.441406 29.550781 30.851562 29.550781 C 36.828125 29.550781 39.613281 22.160156 35.222656 18.199219 Z M 35.222656 18.199219 "/>
</g>
</svg>
