<svg xmlns="http://www.w3.org/2000/svg" viewBox="0 0 40 40" width="53" height="53"><style>tspan { white-space:pre }.shp2 { fill: #ffffff } </style><g ><path fill-rule="evenodd" class="shp2" d="M8 22.66C8 14.57 14.57 8 22.67 8C30.77 8 37.33 14.57 37.33 22.66C37.33 30.77 30.77 37.33 22.67 37.33C14.57 37.32 8.01 30.76 8 22.66ZM12 22.66C12 23.04 11.7 23.33 11.33 23.33L9.37 23.33C9.71 30.16 15.17 35.61 22 35.96L22 34C22 33.63 22.3 33.33 22.67 33.33C23.04 33.33 23.33 33.63 23.33 34L23.33 35.96C30.16 35.61 35.62 30.16 35.96 23.33L33.33 23.33C32.96 23.33 32.67 23.04 32.67 22.66C32.67 22.3 32.96 22 33.33 22L35.96 22C35.62 15.17 30.16 9.71 23.33 9.37L23.33 11.33C23.33 11.7 23.04 12 22.67 12C22.3 12 22 11.7 22 11.33L22 9.37C15.17 9.71 9.71 15.17 9.37 22L11.33 22C11.7 22 12 22.3 12 22.66Z" /><path fill-rule="evenodd" class="shp2" d="M31.33 37.68C23.05 42.46 12.45 39.62 7.67 31.33L4 31.33C3.63 31.33 3.33 31.04 3.33 30.67C3.33 30.3 3.63 30 4 30L8 30C8.02 30 8.04 30.01 8.05 30.01C8.29 30.01 8.51 30.14 8.63 30.35C10.1 33.03 12.3 35.24 14.99 36.7C22.74 40.95 32.46 38.1 36.7 30.35C40.94 22.6 38.1 12.88 30.35 8.63C22.6 4.39 12.87 7.24 8.63 14.99C8.51 15.2 8.29 15.32 8.05 15.32C8.04 15.32 8.02 15.33 8 15.33L4 15.33C3.63 15.33 3.33 15.04 3.33 14.67C3.33 14.3 3.63 14 4 14L7.67 14C10.64 8.85 16.05 5.58 22 5.36L22 1.33L17.33 1.33C16.96 1.33 16.67 1.04 16.67 0.67C16.67 0.3 16.96 0 17.33 0L28 0C28.37 0 28.67 0.3 28.67 0.67C28.67 1.04 28.37 1.33 28 1.33L23.33 1.33L23.33 5.35C26.55 5.47 29.67 6.49 32.33 8.29L33.98 6.64C34.24 6.38 34.66 6.38 34.93 6.64L38.69 10.41C38.95 10.67 38.95 11.09 38.69 11.36L37.04 13C37.27 13.33 37.48 13.67 37.68 14.01C42.46 22.3 39.62 32.89 31.33 37.68ZM36.25 11.91L37.28 10.88L34.45 8.06L33.42 9.09C34.46 9.92 35.41 10.87 36.25 11.91Z" /><path class="shp2" d="M6.67 22.66C6.67 22.3 6.37 22 6 22L0.67 22C0.3 22 0 22.3 0 22.66C0 23.04 0.3 23.33 0.67 23.33L6 23.33C6.37 23.33 6.67 23.04 6.67 22.66Z" /><path class="shp2" d="M2 19.33L6.67 19.33C7.04 19.33 7.33 19.04 7.33 18.66C7.33 18.3 7.04 18 6.67 18L2 18C1.63 18 1.33 18.3 1.33 18.66C1.33 19.04 1.63 19.33 2 19.33Z" /><path class="shp2" d="M7.33 26.66C7.33 26.3 7.04 26 6.67 26L2 26C1.63 26 1.33 26.3 1.33 26.66C1.33 27.04 1.63 27.33 2 27.33L6.67 27.33C7.04 27.33 7.33 27.04 7.33 26.66Z" /><path class="shp2" d="M20.86 27.14C21.12 27.39 21.54 27.39 21.8 27.14L31.07 17.87C31.32 17.61 31.32 17.18 31.05 16.93C30.8 16.68 30.39 16.68 30.13 16.93L21.33 25.72L17.37 21.75C17.1 21.5 16.68 21.51 16.43 21.77C16.18 22.03 16.18 22.44 16.43 22.7L20.86 27.14Z" /></g></svg>