<svg width="51" height="44" viewBox="0 0 51 44" fill="none" xmlns="http://www.w3.org/2000/svg">
<path d="M1.22811 42.5197C0.51834 41.9685 0.124023 41.2598 0.124023 40.2362C0.124023 38.7402 0.597204 37.1654 1.4647 35.5905C2.3322 34.0157 3.67288 32.4409 5.32901 30.9449C6.98514 29.4488 9.03559 28.3465 11.4804 27.4016C13.9251 26.4567 16.6065 26.063 19.5244 26.063C22.5212 26.063 25.2026 26.5354 27.6473 27.4016C30.0921 28.2677 32.0637 29.4488 33.7987 30.9449C35.5337 32.4409 36.7955 33.937 37.663 35.5905C38.5305 37.2441 39.0037 38.8189 39.0037 40.2362C39.0037 41.2598 38.6094 42.0472 37.8996 42.5197C37.1898 42.9921 35.8491 43.3071 34.0353 43.3071H5.01355C3.1997 43.3071 1.93788 42.9921 1.22811 42.5197ZM15.0292 20.5512C13.6097 19.685 12.5056 18.4252 11.6381 16.9291C10.7706 15.4331 10.3763 13.7008 10.3763 11.811C10.3763 9.92126 10.7706 8.26772 11.6381 6.77165C12.5056 5.27559 13.6097 4.09449 15.0292 3.22835C16.4487 2.3622 17.9471 1.88976 19.6033 1.88976C21.2594 1.88976 22.7578 2.28346 24.1774 3.14961C25.5969 4.01575 26.701 5.19685 27.5685 6.69291C28.436 8.18898 28.8303 9.92126 28.8303 11.811C28.8303 13.7008 28.436 15.4331 27.5685 17.0079C26.701 18.5827 25.5969 19.7638 24.1774 20.6299C22.7578 21.4961 21.2594 21.9685 19.6033 21.9685C17.9471 21.9685 16.3699 21.4961 15.0292 20.5512ZM40.2655 14.8031C40.2655 14.7244 40.2655 14.7244 40.2655 14.6457C40.2655 14.5669 40.2655 14.5669 40.2655 14.4882C40.2655 13.3858 40.5021 12.4409 41.0541 11.7323C41.6062 11.0236 42.3159 10.3937 43.1046 9.84252C44.1298 9.13386 44.8396 8.50394 45.3916 8.0315C45.9436 7.55905 46.1014 6.85039 46.1014 6.14173C46.1014 5.27559 45.7859 4.56693 45.155 4.01575C44.5241 3.46457 43.7355 3.14961 42.7103 3.14961C41.9216 3.14961 41.2907 3.30709 40.7387 3.70079C40.1866 4.09449 39.7134 4.56693 39.3191 5.19685C38.9248 5.66929 38.6094 5.98425 38.3728 6.29921C38.1362 6.61417 37.663 6.77165 37.0321 6.77165C36.6378 6.77165 36.3223 6.61417 35.928 6.37795C35.5337 6.14173 35.4548 5.74803 35.4548 5.19685C35.4548 5.03937 35.4548 4.80315 35.5337 4.64567C35.6125 4.48819 35.6125 4.25197 35.6914 4.09449C36.0069 3.07087 36.7955 2.12598 38.0573 1.25984C39.3191 0.393701 40.8964 0 42.868 0C44.2087 0 45.3916 0.23622 46.4957 0.708661C47.5998 1.1811 48.4673 1.81102 49.177 2.67717C49.8868 3.54331 50.2023 4.64567 50.2023 5.90551C50.2023 7.32283 49.808 8.34646 49.0982 9.2126C48.3884 10.0787 47.4421 10.7874 46.338 11.4961C45.5493 12.0472 44.9184 12.5197 44.5241 12.9921C44.1298 13.4646 43.9721 14.0157 43.9721 14.6457C43.9721 14.6457 43.9721 14.7244 43.9721 14.8031C43.9721 14.8819 43.9721 14.8819 43.9721 14.9606C43.9721 15.4331 43.8143 15.8268 43.4989 16.1417C43.1834 16.4567 42.7103 16.6142 42.1582 16.6142C40.8964 16.6142 40.2655 15.9843 40.2655 14.8031ZM40.3443 22.7559C39.8712 22.2835 39.6346 21.7323 39.6346 21.0236C39.6346 20.315 39.8712 19.7638 40.3443 19.2913C40.8175 18.8189 41.4484 18.5827 42.0793 18.5827C42.7103 18.5827 43.3412 18.8189 43.8143 19.2913C44.2875 19.7638 44.5241 20.315 44.5241 21.0236C44.5241 21.7323 44.2875 22.2835 43.8143 22.7559C43.3412 23.2283 42.7103 23.4646 42.0793 23.4646C41.3696 23.4646 40.8175 23.2283 40.3443 22.7559Z" fill="white"/>
</svg>
