<svg
        width="28"
        height="24"
        viewBox="0 0 28 24"
        fill="none"
        xmlns="http://www.w3.org/2000/svg"
>
    <path
            d="M8.68191 23.8057C8.44709 23.7666 8.25139 23.7666 8.01657 23.7274C6.05968 23.4535 4.4159 22.5925 3.08522 21.1444C1.98936 19.9311 1.32402 18.5221 1.08919 16.9175C0.776087 14.6866 1.28488 12.6515 2.6547 10.8511C3.78969 9.32476 5.31607 8.30718 7.19468 7.87667C8.40795 7.6027 9.62121 7.48529 10.8736 7.56356C11.4607 7.6027 12.0869 7.6027 12.674 7.64184C13.8481 7.72012 14.9831 7.44615 16.0398 6.9765C16.392 6.81995 16.7051 6.6634 17.0182 6.46771C17.2922 6.31116 17.5662 6.35029 17.801 6.54598C17.9184 6.6634 17.9967 6.78081 18.1141 6.89822C18.1924 6.85909 18.1924 6.81995 18.2315 6.78081C19.0143 6.03719 19.7579 5.25444 20.5406 4.51082C20.6189 4.43255 20.6189 4.39341 20.5798 4.31513C20.0319 2.86704 20.932 1.26239 22.4584 1.02756C23.4368 0.871012 24.7284 1.3798 25.0806 2.59307C25.0806 2.63221 25.1589 2.67135 25.198 2.71049C26.3722 3.06273 27.0375 4.00203 26.9984 5.2153C26.9592 6.38943 25.9416 7.44615 24.7675 7.52443C24.4153 7.56356 24.063 7.52443 23.7108 7.36788C23.6717 7.36788 23.5934 7.36788 23.5934 7.40701C22.8106 8.18977 21.9887 9.01166 21.206 9.79441C21.206 9.83355 21.2451 9.83355 21.2451 9.83355C21.4408 10.0684 21.4799 10.3032 21.3625 10.5772C20.9712 11.3991 20.5798 12.221 20.1493 13.0428C19.0925 15.1563 17.9576 17.2306 16.5877 19.1483C15.9615 20.0094 15.3353 20.8704 14.5134 21.614C13.3002 22.7099 11.8912 23.4143 10.2474 23.6883C9.97346 23.7274 9.69949 23.7666 9.42553 23.8057C9.22984 23.8057 8.95588 23.8057 8.68191 23.8057ZM11.539 8.85511C10.404 8.77683 9.26897 8.77683 8.13398 8.97252C7.07726 9.16821 6.05968 9.48131 5.15952 10.1467C2.88953 11.8296 1.91108 14.0996 2.3416 16.8783C2.57642 18.6004 3.43746 19.9702 4.76814 21.0661C6.21624 22.2402 7.89915 22.749 9.77776 22.5533C11.2259 22.3968 12.4783 21.8488 13.5741 20.9095C14.396 20.2051 15.0222 19.344 15.6484 18.4439C17.3705 15.939 18.7403 13.2777 20.071 10.538C20.1101 10.4598 20.071 10.4206 20.0319 10.3815C19.1317 9.52045 18.2707 8.65942 17.3705 7.83753C17.2922 7.79839 17.2531 7.79839 17.2139 7.79839C17.0574 7.87667 16.8617 7.95494 16.7051 8.03322C15.6484 8.50287 14.5134 8.85511 13.3393 8.85511C12.7131 8.89425 12.126 8.85511 11.539 8.85511ZM20.345 8.97252C20.3841 8.93338 20.4232 8.89425 20.4624 8.85511C21.3234 7.99408 22.2236 7.09391 23.0846 6.23288C23.3586 5.95892 23.6325 5.91978 23.9456 6.11547C24.7284 6.62426 25.746 6.11547 25.8242 5.17616C25.8634 4.70651 25.5894 4.19772 25.1589 4.00203C25.1198 4.11944 25.0806 4.27599 25.0415 4.39341C24.9241 4.74565 24.611 4.94134 24.2587 4.82392C23.9065 4.70651 23.7499 4.39341 23.8673 4.00203C23.9065 3.84548 23.9456 3.64979 23.9848 3.4541C24.1022 2.71049 23.5151 2.12342 22.7715 2.2017C21.8713 2.31911 21.4017 3.33669 21.9105 4.08031C22.1453 4.43255 22.1061 4.70651 21.8322 5.01961C21.2843 5.56754 20.6972 6.11547 20.1493 6.70253C19.797 7.05477 19.4839 7.40701 19.1317 7.75925C19.5231 8.15063 19.9144 8.58115 20.345 8.97252Z"
            fill="white"
            stroke="#D7C378"
            stroke-width="0.1"
            stroke-miterlimit="10"
    />
</svg>