<svg
        width="28"
        height="24"
        viewBox="0 0 28 24"
        fill="none"
        xmlns="http://www.w3.org/2000/svg"
>
    <path
            d="M27.3561 11.9109L27.2752 11.7492C26.9518 11.1427 26.5879 10.4958 26.1836 9.8893C25.6984 9.16153 24.9706 8.51462 24.0002 7.86771C24.0811 7.82728 24.1215 7.78685 24.162 7.74642C24.6876 7.26124 25.1323 6.61433 25.4558 5.92699C26.1027 4.51187 26.0623 3.05633 25.9005 1.64122C25.8601 1.15604 25.5771 0.751717 25.1728 0.428263C24.6876 0.0643768 24.0811 -0.0569186 23.5555 0.023945C22.5851 0.226104 21.8978 1.03474 21.8978 2.04553C21.8574 3.09676 21.453 3.9054 20.6848 4.55231C19.5932 3.50108 18.5419 3.25849 17.2481 3.25849C17.2077 3.25849 17.1673 3.25849 17.1268 3.25849C15.7521 3.25849 14.2966 3.25849 12.9219 3.25849C11.9516 3.25849 10.9812 3.25849 10.0513 3.25849C9.72781 3.25849 9.40436 3.29892 9.04047 3.37978C8.3127 3.54151 7.62536 3.9054 6.97845 4.55231C6.93802 4.51187 6.89759 4.47144 6.85715 4.47144C6.73586 4.35015 6.61456 4.26928 6.5337 4.14799C5.92722 3.46065 5.7655 2.65201 5.72506 1.84338C5.60377 0.832581 4.71427 0.023945 3.70347 0.023945C3.66304 0.023945 3.62261 0.023945 3.62261 0.023945C2.53095 0.0643768 1.64145 0.913445 1.60102 2.04553C1.56059 2.69244 1.60102 3.21806 1.60102 3.74367C1.68189 5.15878 2.16707 6.37174 3.097 7.42296C3.17786 7.54426 3.29916 7.62512 3.46088 7.74642C3.50132 7.78685 3.54175 7.78685 3.54175 7.82728C2.04577 8.67635 0.954113 9.97017 0.105045 11.83C-0.0162505 12.0726 -0.0162505 12.3152 0.0241813 12.4769C0.105045 12.6387 0.266772 12.8004 0.549795 12.8813L0.630658 12.9217C0.913681 13.0026 1.15627 13.0834 1.43929 13.2047C2.61182 13.5686 3.66304 13.6899 4.67384 13.5686C4.99729 13.5282 5.32075 13.4877 5.60377 13.4069C5.68463 13.4069 5.7655 13.3664 5.88679 13.3664C5.96766 13.609 6.08895 13.8112 6.16981 14.0538C6.41241 14.6198 6.61456 15.105 6.89759 15.6306C7.18061 16.1967 7.26147 16.7223 7.05931 17.2883C6.61456 18.7034 6.77629 20.1994 7.46363 21.4124C8.15097 22.5849 9.28306 23.3935 10.6577 23.6765C11.709 23.8787 12.8411 24 13.9327 24C15.0244 24 16.0756 23.8787 17.046 23.6765C18.3802 23.3935 19.4719 22.5849 20.1188 21.4528C20.8061 20.2398 20.9679 18.7439 20.5231 17.3692C20.3614 16.8031 20.3614 16.3584 20.5635 15.9136C20.8466 15.2667 21.17 14.6198 21.4935 13.9325L21.7361 13.4069C23.3129 13.7708 24.9706 13.609 26.9113 12.8408C27.1539 12.76 27.3156 12.5982 27.3561 12.3961C27.4774 12.2343 27.4774 12.0726 27.3561 11.9109ZM24.4854 1.56035C24.6471 1.72208 24.6876 1.96467 24.6876 2.20726C24.6876 2.40942 24.6876 2.57115 24.6876 2.77331C24.6876 3.37978 24.6876 3.98626 24.5663 4.59274C24.2833 5.96742 23.3938 7.01865 22.0191 7.66555C21.8574 7.01865 21.7361 6.37174 21.5743 5.72483C22.383 5.07792 22.9086 4.26928 23.1512 3.33935C23.232 2.97547 23.2725 2.57115 23.3129 2.20726C23.3533 1.72208 23.6364 1.39863 24.0407 1.39863C24.2024 1.35819 24.3641 1.43906 24.4854 1.56035ZM21.9382 9.28283C21.9382 9.24239 22.0191 9.16153 22.0595 9.1211L22.0999 9.08067H22.1404C22.1808 9.08067 22.2212 9.08067 22.2617 9.04024C22.4234 8.91894 22.5851 8.83808 22.7469 8.83808C22.9894 8.83808 23.2725 8.9998 23.5151 9.16153C24.5259 9.80844 25.2941 10.6979 25.8601 11.83C24.5663 12.3152 23.3129 12.3556 22.0191 12.0726C21.9786 12.0726 21.9382 11.9513 21.9382 11.9109C21.8978 10.9405 21.8978 10.0915 21.9382 9.28283ZM20.5635 7.58469C20.5635 8.91894 20.5635 10.3341 20.5231 11.7087C20.5231 12.8408 20.1996 13.8516 19.6336 14.822C19.0676 15.7115 18.9867 16.6818 19.2697 17.7331C19.5932 18.8247 19.4314 19.9973 18.8654 20.8868C18.3398 21.6954 17.5312 22.221 16.5608 22.3827C14.9839 22.6253 13.0028 22.6253 11.4664 22.4232C10.2939 22.2614 9.28306 21.6145 8.67659 20.6442C8.11054 19.7547 7.98924 18.7034 8.3127 17.6926C8.63615 16.7223 8.51486 15.7923 7.98925 14.9028C7.38277 13.8921 7.05931 12.8408 7.05931 11.7492C7.05931 10.3745 7.01888 8.87851 7.05931 7.4634C7.09975 5.96742 8.39356 4.6736 9.88954 4.6736C10.3747 4.6736 10.8599 4.6736 11.3451 4.6736C12.1537 4.6736 12.9624 4.6736 13.771 4.6736H14.8627C15.7522 4.6736 16.6416 4.6736 17.5311 4.6736C19.3101 4.63317 20.5635 5.88656 20.5635 7.58469ZM4.47168 6.89735C3.50132 6.04828 3.01613 4.95662 2.9757 3.66281C2.9757 3.17763 2.9757 2.69244 2.9757 2.24769C2.9757 1.76251 3.25873 1.43906 3.66304 1.43906H3.70347C4.10779 1.43906 4.35038 1.72208 4.39082 2.16683C4.43125 3.66281 5.03772 4.83533 6.12938 5.72483L5.72506 7.66555C5.23988 7.50383 4.83557 7.18037 4.47168 6.89735ZM5.7655 11.7896C5.7655 11.8705 5.68463 11.9513 5.68463 11.9918C4.30995 12.3556 2.93527 12.3152 1.64145 11.83C2.32879 10.4553 3.33959 9.44455 4.63341 8.79765C4.71427 8.75721 4.79513 8.79765 4.91643 8.79765H4.95686C4.95686 8.79765 4.99729 8.79764 5.03772 8.83808C5.07816 8.87851 5.11859 8.87851 5.15902 8.87851C5.6442 8.95937 5.84636 9.20196 5.7655 9.80844C5.72506 10.2128 5.72506 10.6575 5.72506 11.0618C5.7655 11.3044 5.7655 11.547 5.7655 11.7896Z"
            fill="white"
    />
</svg>