<svg
        width="25"
        height="24"
        viewBox="0 0 25 24"
        fill="none"
        xmlns="http://www.w3.org/2000/svg"
>
    <path
            d="M23.2038 4.97007C22.7748 4.54109 22.1508 4.65808 22.1508 4.65808C22.1508 4.65808 22.4628 4.22911 22.4628 3.95612C22.5018 2.94217 21.9948 2.24021 21.0589 1.73324C20.7079 1.53825 19.8889 1.34326 19.4209 1.69424C19.4209 0.99228 18.797 0.0173324 17.4711 0.0173324C17.4711 -0.0216655 17.0031 0.0173324 16.9641 0.0173324C16.9251 0.0173324 16.8471 0.0173324 16.8081 0.0173324C14.5072 0.641299 14.1952 3.76113 13.3373 5.75002C7.40961 2.98117 0.311983 16.0845 0 20.7642C0 20.9592 0 21.3882 0 21.5832C0.584969 28.2128 13.5323 19.3603 16.0671 16.9424C18.095 15.4995 19.07 13.0036 18.212 10.6248C20.7859 9.76681 26.2456 8.0509 23.2038 4.97007ZM16.1841 15.0705C15.5992 15.6165 15.0142 16.1625 14.4292 16.7474C13.7273 16.0455 13.0253 15.3045 12.2843 14.6415C12.0504 14.3686 11.6994 14.1346 11.3484 14.3296C11.0364 14.4466 10.8414 14.9535 11.3094 15.4215C12.0504 16.1625 13.2593 17.6834 13.2593 17.6834C13.2593 17.6834 10.5684 19.5163 9.47649 20.2182C9.32049 20.1013 7.83858 18.1124 7.01962 18.6193C6.16167 19.3993 7.68258 20.2572 8.11156 20.9202L7.87758 21.0762C4.99174 22.5581 -0.623962 24.859 1.83291 19.0093C2.33988 19.3993 3.15883 20.2572 3.58781 19.2433C3.89979 18.5803 3.00284 18.0344 2.49586 17.5274C2.76885 16.3185 3.89979 14.6415 4.56276 13.2766C4.75775 13.3936 5.88869 14.4856 6.51265 14.9535C7.13662 15.4215 7.4486 15.2655 7.68259 15.0705C7.91658 14.8755 7.64359 14.3686 7.29261 14.0176C6.66865 13.3936 6.00567 12.7306 5.42071 12.1067C6.20066 10.9757 7.21461 9.72781 8.30655 8.51887C8.81352 8.79186 9.78847 10.1958 10.6854 10.8977C11.2314 11.3267 11.6994 11.4827 12.0113 11.1707C12.3233 10.8587 11.8554 10.1958 11.6994 10.0788C11.0364 9.33783 9.35949 7.62192 9.2815 7.54393C9.2815 7.54393 9.55449 7.38794 9.55449 7.34894C10.8024 6.68597 12.3623 6.84196 13.4153 7.85591C15.5212 9.49382 18.914 12.3407 16.1841 15.0705ZM22.1508 7.58293C20.5909 8.47988 19.265 8.86986 17.3541 9.33783C16.8081 8.47988 15.5212 7.30994 14.5852 6.56898C15.3262 4.85307 16.1061 2.5522 16.3401 1.92823C16.6131 1.14827 17.705 1.26527 18.095 1.85023C18.485 2.5132 17.705 3.13716 17.5101 3.72213C17.1201 4.22911 17.939 5.04806 18.407 4.54109C18.797 4.11211 19.07 3.68313 19.4209 3.21516C20.1229 2.12322 21.7998 3.68314 20.8249 4.50209C20.4349 4.85307 19.9279 5.12606 19.538 5.47704C18.992 5.86702 19.499 6.68597 20.0839 6.52998C20.3959 6.41299 20.7469 6.218 21.0589 6.06201C22.1118 5.08706 23.3207 6.88096 22.1508 7.58293Z"
            fill="white"
    />
</svg>