<svg width="23" height="22" viewBox="0 0 23 22"  xmlns="http://www.w3.org/2000/svg">
<path d="M21.545 14.5895C21.2362 14.1264 20.8172 13.6632 20.2437 13.1339C20.0011 12.9354 19.9129 12.759 19.8688 12.4943C19.7365 11.5459 19.5821 10.5976 19.4277 9.64921C19.1851 8.06125 18.9204 6.40713 18.7219 4.79712C18.5896 3.73848 18.1265 2.98861 17.2663 2.43723C15.8989 1.55504 14.4433 0.915441 13.1861 0.408176C11.8187 -0.143198 10.3852 -0.143198 8.95158 0.452286C8.06938 0.805166 7.09896 1.20216 6.19471 1.68736C5.48895 2.04024 4.87141 2.48134 4.1877 2.96655C3.76866 3.25327 3.504 3.69437 3.41578 4.20163L3.28345 5.08383C3.17318 5.78959 3.08495 6.4733 2.97468 7.24522C2.68797 9.09784 2.42331 10.9505 2.13659 12.8031C2.13659 12.8251 2.09248 12.9134 1.96015 13.0457C1.84988 13.156 1.71755 13.2662 1.58522 13.3765C1.40878 13.5309 1.21028 13.6853 1.0559 13.8838C-0.355621 15.4056 -0.35562 17.2361 1.07795 18.78C1.69549 19.4416 2.51153 20.0151 3.54811 20.4782C5.77566 21.4927 8.1576 21.9559 11.532 22H11.5541L12.1054 21.9559C12.6789 21.9118 13.4508 21.8456 14.2007 21.7353C16.0092 21.4927 17.5971 21.0075 19.0307 20.2577C20.1776 19.6622 20.9715 19.0005 21.5229 18.2065C22.2287 16.9494 22.2728 15.7143 21.545 14.5895ZM16.9355 4.7089C16.6488 5.17205 16.1856 5.45877 15.7445 5.65726C14.9064 6.05425 13.936 6.31891 12.7671 6.45124C11.0027 6.64974 9.45884 6.56152 8.00322 6.23069C6.94458 5.98809 6.08443 5.70137 5.40073 5.06178C5.24634 4.92945 5.11402 4.75301 5.00374 4.5104C4.87141 4.24574 4.98168 4.11341 5.09196 4.02519C5.48895 3.73848 5.90799 3.42971 6.37115 3.20916C7.40773 2.72395 8.44432 2.26079 9.52501 1.79764C10.0323 1.57709 10.5836 1.46681 11.1571 1.46681C11.51 1.46681 11.8628 1.51093 12.2378 1.59915C12.3701 1.6212 13.2523 1.97408 13.9801 2.28285L14.4212 2.52545C15.149 2.92244 15.8548 3.29738 16.5605 3.67231C16.6488 3.71642 16.7149 3.78259 16.8032 3.87081C17.1119 4.17958 17.134 4.35602 16.9355 4.7089ZM11.0468 8.08331C13.0097 8.08331 14.6638 7.75248 16.0974 7.09083C16.5164 6.89234 16.8914 6.64973 17.2884 6.42919C17.3104 6.40713 17.3545 6.38508 17.3766 6.36302L18.4793 13.5309L19.6703 14.6998C20.3761 15.2071 20.8172 16.2657 20.2658 17.2141C19.8908 17.8537 19.3174 18.3389 18.4132 18.8241C17.0458 19.5519 15.4799 20.0151 13.7596 20.1915C12.3701 20.3238 11.2232 20.3679 10.1646 20.3459C7.915 20.3018 5.99621 19.9048 4.25387 19.1329C3.19523 18.6697 2.48947 18.1624 1.98221 17.5228C1.62933 17.0597 1.45289 16.5304 1.51905 16.001C1.58522 15.4717 1.89399 14.9865 2.44536 14.5895L3.57017 13.3986L3.59222 13.2883C3.85688 11.6342 4.09949 9.98004 4.34209 8.32591L4.65086 6.36302C4.69497 6.38508 4.73908 6.40713 4.78319 6.42919C5.18018 6.67179 5.59922 6.93645 6.04032 7.13494C7.4739 7.77454 9.10596 8.08331 11.0247 8.08331H11.0468Z" fill="white"/>
<path d="M3.54798 13.3986C3.48181 13.7735 3.4377 14.1484 3.37154 14.5234C3.26126 15.2512 3.45976 15.8026 3.96702 16.2878C4.0773 16.398 4.20963 16.5083 4.3199 16.6186C4.5184 16.8171 4.54045 17.0817 4.38607 17.2582C4.23168 17.4346 3.96702 17.4787 3.76853 17.2802C3.41565 16.9053 3.06277 16.5304 2.77605 16.1113C2.46728 15.6482 2.40112 15.1188 2.48934 14.5234L3.54798 13.3986Z" fill="white"/>
<path d="M19.5378 14.5675C19.5157 14.8321 19.5378 15.1409 19.4716 15.4056C19.2731 16.3539 18.6335 16.9715 17.8616 17.5008C16.7368 18.2948 15.4576 18.7138 14.1122 19.0005C12.2155 19.3975 10.3188 19.4637 8.42207 19.2211C7.69425 19.1329 6.96644 18.9564 6.23862 18.78C5.88574 18.6918 5.77547 18.383 5.95191 18.1183C6.10629 17.8757 6.32684 17.9198 6.56945 17.964C9.12782 18.6477 11.7083 18.6477 14.3107 18.0963C15.5017 17.8537 16.6706 17.4567 17.641 16.6848C18.3027 16.1775 18.7879 15.56 18.6335 14.6337C18.5674 14.2587 18.5232 13.8838 18.4571 13.5089" fill="white"/>
<path d="M13.9361 2.28284C13.6935 2.87832 13.2744 3.14298 12.8113 3.34147C11.8188 3.76052 10.8043 3.78257 9.78974 3.58408C9.48097 3.51791 9.32658 3.34147 9.37069 3.07681C9.4148 2.81215 9.6133 2.72393 9.94413 2.74599C10.4955 2.7901 11.0248 2.85626 11.5762 2.7901C12.0173 2.74599 12.4363 2.61366 12.8333 2.43722C13.1642 2.28284 13.1421 2.01818 12.8113 1.84174" fill="white"/>
</svg>