<svg width="24" height="24" viewBox="0 0 24 24"  xmlns="http://www.w3.org/2000/svg">
<path d="M12.5026 18.9281C12.524 15.2672 15.8424 11.5421 19.4818 11.0711C21.9867 10.75 23.9562 12.5269 23.9991 15.1816C24.0633 18.6926 20.7878 22.589 17.2982 23.1242C14.4508 23.5524 12.4598 21.8183 12.5026 18.9281ZM21.9867 13.3618C20.381 14.0255 19.5675 14.7106 19.1179 15.8881C18.3044 17.8791 17.5979 19.9343 16.0136 21.6042C16.8058 21.8183 17.448 21.647 18.0475 21.3901C20.274 20.4267 21.7297 18.7354 22.3506 16.3805C22.5005 15.8452 22.4791 15.2244 22.4362 14.6678C22.3934 14.2182 22.1579 13.8114 21.9867 13.3618ZM19.8244 12.7624C19.7816 12.7196 19.7602 12.6554 19.7173 12.6125C19.5889 12.6125 19.4818 12.5911 19.3534 12.6125C16.506 13.0193 13.7229 16.5303 13.9584 19.3777C13.9798 19.656 14.0441 19.9129 14.1297 20.1698C14.2153 20.3839 14.3652 20.5551 14.4936 20.7692C15.1787 20.3411 15.6283 19.7844 15.9494 19.1636C16.399 18.3072 16.87 17.4295 17.1911 16.5089C17.7692 15.0531 18.4114 13.6616 19.8244 12.7624Z" fill="white"/>
<path d="M0 15.8238C0.0214086 15.5455 0.0214086 15.2672 0.0428173 15.0103C0.321129 12.3342 2.56904 10.7928 5.15948 11.4779C6.59386 11.8632 7.74992 12.6767 8.71331 13.79C9.9336 15.1816 10.7685 16.7658 10.9398 18.6283C11.0254 19.4419 10.9612 20.2982 10.7685 21.0689C10.1905 23.2526 8.13528 24.3444 5.88737 23.745C5.48061 23.638 5.05244 23.4881 4.68849 23.2954C1.75551 21.6684 0.235495 19.1422 0 15.8238ZM3.01862 12.9979C3.01862 13.1906 2.99721 13.319 3.01862 13.4475C3.21129 14.7962 3.81074 15.9095 4.94539 16.7444C6.50822 17.9219 8.00683 19.185 9.01303 20.8977C9.03444 20.9405 9.12008 20.9405 9.20571 20.9619C9.26994 20.7692 9.39839 20.5765 9.39839 20.3624C9.4198 19.6346 9.50543 18.8853 9.35557 18.1788C8.84176 15.9523 7.60006 14.2396 5.54483 13.1906C4.77412 12.8266 3.9606 12.6339 3.01862 12.9979ZM1.75551 14.8176C1.69128 14.839 1.62706 14.839 1.58424 14.8604C1.54142 15.0317 1.4986 15.203 1.4986 15.3956C1.39156 17.7078 2.37636 19.5275 4.00341 21.0475C4.62426 21.647 5.37357 22.0751 6.2085 22.2892C6.74372 22.4177 7.27893 22.4819 7.79274 22.2678C7.64288 21.4757 7.47161 21.0475 6.67949 20.2982C5.75892 19.3991 4.77412 18.5855 3.78933 17.7506C2.99721 17.0869 2.37636 16.3376 1.96959 15.3742C1.92678 15.1816 1.84114 15.0103 1.75551 14.8176Z" fill="white"/>
<path d="M16.2277 6.57531C16.2491 8.67335 15.7782 10.4289 14.5793 11.9061C13.83 12.848 12.8666 13.4689 11.6249 13.5545C10.2333 13.6402 9.14148 13.0621 8.24232 12.0345C7.30034 10.9427 6.78654 9.63674 6.57245 8.22377C6.29414 6.33981 6.52963 4.52008 7.38598 2.78598C7.77133 2.01527 8.30655 1.3516 9.01303 0.816386C10.426 -0.254045 12.1815 -0.275454 13.6159 0.773569C14.4294 1.3516 15.0074 2.14372 15.4356 3.04288C15.9922 4.24177 16.2706 5.48347 16.2277 6.57531ZM12.5026 11.6277C13.2733 11.221 13.5731 10.9213 13.9584 10.172C14.7505 8.63054 14.9432 6.98207 14.6007 5.29079C14.3866 4.19895 13.9584 3.19274 13.1663 2.37922C12.781 1.99386 12.3528 1.65132 11.7319 1.62991C11.004 2.89302 10.7899 4.17754 11.2823 5.5691C11.9888 7.49588 12.6525 9.42265 12.5026 11.6277ZM9.76233 2.40062C9.69811 2.37922 9.63388 2.35781 9.54825 2.3364C9.31275 2.67894 9.01303 3.00007 8.82035 3.3426C8.07105 4.69135 7.81415 6.14713 8.00683 7.66715C8.15669 8.82321 8.47782 9.93646 9.22712 10.857C9.63388 11.3708 10.0835 11.8632 10.8542 11.9275C11.1753 11.2638 11.1111 10.5787 10.9826 9.93646C10.7685 8.93026 10.533 7.90264 10.1905 6.93925C9.65529 5.46206 9.33416 3.98486 9.76233 2.40062Z" fill="white"/>
</svg>