<?xml version="1.0" standalone="no"?>
<!DOCTYPE svg PUBLIC "-//W3C//DTD SVG 1.0//EN" "http://www.w3.org/TR/2001/REC-SVG-20010904/DTD/svg10.dtd">
<svg xmlns="http://www.w3.org/2000/svg" xmlns:xlink="http://www.w3.org/1999/xlink" id="body_1" width="24" height="24">

<g transform="matrix(0.24 0 0 0.24 0 0)">
    <path transform="matrix(1 0 0 1 0 0)"  d="M-1 -1L581 -1L581 401L-1 401L-1 -1z" stroke="none" fill="none" />
    <path transform="matrix(1 0 0 1 0 0)"  d="M50 92.5C 38.4 92.5 29.8 88.4 24.4 80.3C 15.4 66.60001 18.1 44.3 24.5 29.3C 33.6 7.700003 49.3 7.500004 50 7.500004C 50.7 7.500004 66.4 7.700004 75.5 29.3C 81.9 44.3 84.6 66.7 75.6 80.3C 70.2 88.4 61.6 92.5 50 92.5zM50 11.2C 49.5 11.2 36 11.6 27.9 30.7C 21.9 44.8 19.2 65.7 27.5 78.2C 32.1 85.2 39.7 88.8 50 88.8C 60.3 88.8 67.9 85.2 72.5 78.2C 80.8 65.7 78.1 44.8 72.1 30.7C 64 11.6 50.6 11.2 50 11.2z" stroke="none" fill="#FFFFFF" fill-rule="nonzero" />
    <path transform="matrix(1 0 0 1 0 0)"  d="M29.9 63C 29.2 60.5 28.9 57.8 29 54.8L29 54.8L32.7 54.9C 32.7 57.6 32.9 60 33.5 62.1L33.5 62.1L29.9 63z" stroke="none" fill="#FFFFFF" fill-rule="nonzero" />
    <path transform="matrix(1 0 0 1 0 0)"  d="M33 50.2L29.3 49.7C 30.9 37.3 33.9 31.4 38.7 24.9L38.7 24.9L41.7 27.1C 37.1 33.3 34.5 38.6 33 50.2z" stroke="none" fill="#FFFFFF" fill-rule="nonzero" />
</g>
</svg>