<svg xmlns="http://www.w3.org/2000/svg" viewBox="0 0 28 28" width="28" height="28">
	<style>
		tspan { white-space:pre }
		.shp0 { fill: #ffffff } 
	</style>
	<path id="Layer" fill-rule="evenodd" class="shp0" d="M12.04 19.66C13.42 19.66 14.55 20.78 14.55 22.17C14.55 23.55 13.42 24.68 12.04 24.68C10.65 24.68 9.53 23.55 9.53 22.17C9.53 20.78 10.65 19.66 12.04 19.66ZM12.04 23.58C12.82 23.58 13.45 22.95 13.45 22.17C13.45 21.39 12.82 20.75 12.04 20.75C11.26 20.75 10.62 21.39 10.62 22.17C10.62 22.95 11.26 23.58 12.04 23.58Z" />
	<path id="Layer" fill-rule="evenodd" class="shp0" d="M21.94 17.76C22.99 17.76 23.85 18.62 23.85 19.67C23.85 20.72 22.99 21.58 21.94 21.58C20.89 21.58 20.03 20.72 20.03 19.67C20.03 18.62 20.89 17.76 21.94 17.76ZM22.75 19.67C22.75 19.22 22.39 18.86 21.94 18.86C21.49 18.86 21.12 19.22 21.12 19.67C21.12 20.12 21.49 20.48 21.94 20.48C22.39 20.48 22.75 20.12 22.75 19.67Z" />
	<path id="Layer" fill-rule="evenodd" class="shp0" d="M5.99 14.93C6.98 14.93 7.78 15.73 7.78 16.72C7.78 17.7 6.98 18.51 5.99 18.51C5 18.51 4.2 17.7 4.2 16.72C4.2 15.73 5 14.93 5.99 14.93ZM6.69 16.72C6.69 16.33 6.37 16.02 5.99 16.02C5.6 16.02 5.29 16.33 5.29 16.72C5.29 17.1 5.6 17.41 5.99 17.41C6.37 17.41 6.69 17.1 6.69 16.72Z" />
	<path id="Layer" fill-rule="evenodd" class="shp0" d="M19.16 5.36C19.16 4.36 19.97 3.55 20.97 3.55C21.97 3.55 22.79 4.36 22.79 5.36C22.79 6.36 21.97 7.18 20.97 7.18C19.97 7.18 19.16 6.36 19.16 5.36ZM20.25 5.36C20.25 5.76 20.58 6.08 20.97 6.08C21.37 6.08 21.69 5.76 21.69 5.36C21.69 4.97 21.37 4.64 20.97 4.64C20.58 4.64 20.25 4.97 20.25 5.36Z" />
	<path id="Layer" fill-rule="evenodd" class="shp0" d="M28 12.39L28 24.46C28 26.21 26.58 27.63 24.83 27.63L22.94 27.63C22.63 27.63 22.39 27.39 22.39 27.08C22.39 26.3 21.75 25.67 20.97 25.67C20.19 25.67 19.56 26.3 19.56 27.08C19.56 27.39 19.31 27.63 19.01 27.63L3.17 27.63C1.42 27.63 0 26.21 0 24.46L0 24.13C0 23.83 0.24 23.58 0.55 23.58C1.33 23.58 1.96 22.95 1.96 22.17C1.96 21.39 1.33 20.75 0.55 20.75C0.24 20.75 0 20.51 0 20.21L0 13.72C0 13.25 0.11 12.79 0.3 12.38C0.32 12.26 0.38 12.15 0.46 12.07C0.74 11.63 1.12 11.25 1.58 10.98L8.62 6.9C8.82 6.79 9.06 6.81 9.24 6.95C9.8 7.4 10.61 7.35 11.12 6.84C11.44 6.52 11.59 6.08 11.52 5.63C11.49 5.4 11.59 5.18 11.79 5.07L19.22 0.77C20.58 -0.02 22.32 0.27 23.35 1.47C25.81 4.32 27.39 7.81 27.91 11.54L27.97 11.95C27.99 12.1 28 12.25 28 12.39ZM24.83 26.54C25.97 26.54 26.91 25.61 26.91 24.46L26.91 13.02L19.01 13.02C18.76 14.26 17.65 15.21 16.33 15.21C15.01 15.21 13.91 14.26 13.65 13.02L9.68 13.02C9.38 13.02 9.13 12.77 9.13 12.47C9.13 12.17 9.38 11.92 9.68 11.92L13.65 11.92C13.91 10.68 15.01 9.74 16.33 9.74C16.64 9.74 16.88 9.98 16.88 10.28C16.88 10.59 16.64 10.83 16.33 10.83C15.62 10.83 15.01 11.29 14.79 11.92L26.86 11.92L26.83 11.7C26.33 8.17 24.84 4.88 22.52 2.18C21.83 1.39 20.67 1.19 19.76 1.72L12.63 5.85C12.63 6.5 12.37 7.14 11.9 7.61C11.08 8.43 9.84 8.57 8.88 8.02L2.13 11.92C2.13 11.92 2.13 11.92 2.13 11.92L4.94 11.92C5.24 11.92 5.49 12.17 5.49 12.47C5.49 12.77 5.24 13.02 4.94 13.02L1.22 13.02C1.14 13.24 1.09 13.48 1.09 13.72L1.09 19.72C2.22 19.97 3.06 20.97 3.06 22.17C3.06 23.36 2.22 24.36 1.1 24.62C1.18 25.69 2.08 26.54 3.17 26.54L18.52 26.54C18.77 25.42 19.78 24.57 20.97 24.57C22.17 24.57 23.17 25.42 23.42 26.54L24.83 26.54ZM14.79 13.02C15.01 13.65 15.62 14.11 16.33 14.11C17.05 14.11 17.65 13.65 17.88 13.02L14.79 13.02Z" />
	<path id="Layer" class="shp0" d="M7.38 11.92C7.24 11.92 7.1 11.98 7 12.08C6.89 12.19 6.84 12.33 6.84 12.47C6.84 12.62 6.89 12.76 7 12.86C7.1 12.96 7.24 13.02 7.38 13.02C7.53 13.02 7.67 12.96 7.77 12.86C7.87 12.76 7.93 12.62 7.93 12.47C7.93 12.33 7.87 12.19 7.77 12.08C7.67 11.98 7.53 11.92 7.38 11.92Z" />
</svg>