<svg xmlns="http://www.w3.org/2000/svg" viewBox="0 0 28 28" width="28" height="28">
	<style>
		tspan { white-space:pre }
		.shp0 { fill: #ffffff } 
	</style>
	<path id="Layer" class="shp0" d="M23.18 4.12C22.97 4.33 22.97 4.68 23.18 4.89C23.39 5.11 23.74 5.11 23.96 4.89C24.17 4.68 24.17 4.33 23.96 4.12C23.74 3.91 23.39 3.91 23.18 4.12Z" />
	<path id="Layer" fill-rule="evenodd" class="shp0" d="M23.18 0.01C24.86 -0.06 26.3 0.34 27.02 1.06C27.74 1.77 28.13 3.19 28.08 4.84C27.95 8.52 26.1 12.4 23.7 15.14C24.14 17.13 23.53 19.23 22.08 20.69C21.44 21.32 20.39 21.32 19.75 20.69L17.97 18.91C14.72 20.03 11.25 20.25 9.48 20.28C10.13 21.25 10.47 22.39 10.47 23.59C10.47 25.19 9.85 26.7 8.71 27.84C8.6 27.95 8.46 28 8.32 28C8.18 28 8.04 27.95 7.93 27.84C6.8 26.7 6.17 25.19 6.17 23.59C6.17 22.86 6.3 22.16 6.54 21.5C5.88 21.74 5.18 21.87 4.45 21.87C2.84 21.87 1.33 21.24 0.19 20.11C-0.03 19.89 -0.03 19.55 0.19 19.33C1.33 18.2 2.84 17.57 4.45 17.57C5.65 17.57 6.79 17.92 7.77 18.56C7.79 16.8 8.01 13.33 9.14 10.09L7.36 8.31C6.72 7.67 6.72 6.63 7.36 5.99C8.81 4.54 10.92 3.94 12.92 4.37C16.03 1.65 19.95 0.13 23.18 0.01ZM8.13 7.54L9.57 8.97C10.19 7.51 10.97 6.29 11.9 5.33C10.51 5.26 9.13 5.77 8.13 6.77C7.92 6.98 7.92 7.33 8.13 7.54ZM4.45 20.78C5.57 20.78 6.63 20.4 7.5 19.72C6.63 19.04 5.57 18.67 4.45 18.67C3.33 18.67 2.26 19.04 1.4 19.72C2.26 20.4 3.33 20.78 4.45 20.78ZM8.32 26.63C9.01 25.77 9.38 24.71 9.38 23.59C9.38 22.47 9.01 21.41 8.32 20.54C7.64 21.41 7.27 22.47 7.27 23.59C7.27 24.71 7.64 25.77 8.32 26.63ZM21.3 19.91C22.3 18.91 22.81 17.54 22.74 16.16C21.78 17.07 20.56 17.85 19.09 18.48L20.53 19.91C20.74 20.13 21.09 20.13 21.3 19.91ZM26.98 4.8C27.03 3.31 26.65 2.23 26.25 1.83C25.84 1.43 24.74 1.04 23.22 1.1C21.72 1.16 20 1.57 18.35 2.26C18.07 3.4 18.17 4.66 18.64 5.82C18.75 6.1 18.61 6.41 18.33 6.53C18.05 6.64 17.73 6.5 17.62 6.22C17.18 5.12 17.02 3.95 17.14 2.82C15.8 3.51 14.56 4.37 13.43 5.38C13.21 5.58 12.99 5.78 12.78 5.99C9.74 9.02 8.84 14.9 8.86 19.18C13.16 19.2 19.05 18.3 22.08 15.27C22.29 15.06 22.49 14.84 22.69 14.62L22.69 14.62C23.71 13.5 24.57 12.26 25.25 10.92C23.64 11.1 22.01 10.7 20.61 9.8C20.35 9.64 20.28 9.3 20.44 9.05C20.6 8.79 20.94 8.72 21.2 8.88C22.62 9.79 24.29 10.08 25.82 9.71C26.52 8.05 26.93 6.31 26.98 4.8Z" />
	<path id="Layer" class="shp0" d="M18.87 7.51C18.65 7.72 18.65 8.07 18.87 8.28C19.08 8.5 19.43 8.5 19.64 8.28C19.86 8.07 19.86 7.72 19.64 7.51C19.43 7.3 19.08 7.3 18.87 7.51Z" />
</svg>