<?xml version="1.0" standalone="no"?>
<!DOCTYPE svg PUBLIC "-//W3C//DTD SVG 1.0//EN" "http://www.w3.org/TR/2001/REC-SVG-20010904/DTD/svg10.dtd">
<svg xmlns="http://www.w3.org/2000/svg" xmlns:xlink="http://www.w3.org/1999/xlink" id="body_1" width="28" height="28">

<g transform="matrix(0.7777779 0 0 0.7777779 0 0)">
    <path transform="matrix(0.0703125 0 0 0.0703125 0 0)"  d="M-1 -1L581 -1L581 401L-1 401L-1 -1z" stroke="none" fill="none" />
    <path transform="matrix(0.0703125 0 0 0.0703125 0 0)"  d="M43.53 275.82C 43.53 275.88 43.53 275.94 43.54 275.99C 43.56 276.14 43.58 276.3 43.61 276.45C 43.62 276.52 43.63 276.59 43.64 276.67C 43.66999 276.81 43.71 276.95 43.73999 277.08C 43.75999 277.16 43.77999 277.25 43.8 277.33C 43.84 277.46 43.89 277.59 43.93999 277.72C 43.96999 277.8 43.98999 277.87 44.02 277.95C 44.02 277.9601 44.02999 277.97 44.02999 277.98C 44.02999 277.9901 44.02999 277.9901 44.03999 278C 51.98999 297.36 63.02999 315.21 76.84 331.06C 78.21999 332.65 80.17 333.46 82.12 333.46C 83.74999 333.46 85.38999 332.89 86.71999 331.74C 89.63 329.2 89.93999 324.78 87.39999 321.86C 75.21999 307.89 65.37 292.24 58.09999 275.31C 58.23 275 58.35999 274.7 58.48999 274.39C 58.8 273.68 59.12 272.96 59.43999 272.26C 59.77 271.52 60.10999 270.79 60.44999 270.05C 60.77999 269.34 61.11999 268.64 61.45999 267.93C 61.80999 267.21 62.15999 266.49 62.51999 265.77C 62.86999 265.07 63.22999 264.37 63.58999 263.67C 63.95999 262.96 64.31999 262.26 64.69999 261.56C 65.06999 260.86 65.44999 260.17 65.82999 259.48C 66.20998 258.79 66.59998 258.1 66.98999 257.42C 67.37999 256.73 67.77999 256.05 68.17999 255.37C 68.57999 254.7 68.98 254.02 69.37999 253.36C 69.78999 252.6801 70.20999 252 70.62999 251.3201C 71.03999 250.66 71.44999 250.0101 71.86999 249.36C 72.29999 248.69 72.73999 248.0201 73.17999 247.3501C 73.59998 246.7101 74.02998 246.0701 74.45998 245.44C 74.90998 244.7701 75.36999 244.11 75.82999 243.45C 76.26999 242.83 76.70998 242.21 77.14999 241.59C 77.61999 240.93 78.09998 240.28 78.57999 239.63C 79.02998 239.02 79.47999 238.42 79.93999 237.83C 80.42999 237.18 80.92999 236.54 81.42999 235.89C 81.88998 235.3 82.34998 234.72 82.81998 234.14C 83.32999 233.5 83.84998 232.86 84.36999 232.23C 84.83999 231.66 85.31998 231.1 85.78999 230.53C 86.31998 229.9 86.85999 229.27 87.39999 228.65C 87.87999 228.1 88.36999 227.55 88.84998 227.01C 89.39999 226.39 89.95998 225.77 90.51998 225.16C 91.00998 224.63 91.50998 224.1 91.99998 223.57C 92.56998 222.96 93.14999 222.35 93.72999 221.75C 94.22999 221.23 94.73999 220.73 95.23999 220.22C 95.82999 219.62 96.42999 219.03 97.02999 218.44C 97.53999 217.94 98.04999 217.45 98.56999 216.96C 99.17999 216.37 99.8 215.79 100.42 215.21C 100.94 214.73 101.46 214.26 101.98 213.79C 102.61 213.21 103.25 212.64 103.89 212.07C 104.41 211.61 104.94 211.16 105.47 210.71C 106.12 210.15 106.78 209.58 107.44 209.03C 107.97 208.59 108.5 208.16 109.04 207.72C 109.71 207.17 110.39 206.62 111.07 206.08C 111.6 205.66 112.14 205.24 112.68 204.83C 113.38 204.29 114.07 203.75 114.77 203.23C 115.31 202.83 115.86 202.43 116.4 202.03C 117.11 201.51 117.83 200.98 118.55 200.47C 119.1 200.08 119.65 199.71 120.2 199.33C 120.93 198.82 121.67 198.31 122.41 197.81C 122.96 197.44 123.52 197.08 124.08 196.72C 124.83 196.23 125.58 195.73 126.34 195.25C 126.9 194.9 127.46 194.55 128.03 194.21C 128.8 193.74 129.57 193.26 130.34 192.8C 130.91 192.46 131.48 192.14 132.05 191.81C 132.83 191.35 133.62 190.89 134.41 190.45C 134.98 190.13 135.56 189.82 136.14 189.5C 136.94 189.06 137.74 188.62 138.54 188.2C 139.13 187.89 139.72 187.6 140.31 187.29C 141.12 186.88 141.92 186.46 142.74 186.06C 143.35 185.76 143.96 185.48 144.57 185.18C 145.38 184.79 146.19 184.4 147 184.02C 147.63 183.73 148.28 183.45 148.92 183.17C 149.72 182.81 150.52 182.45 151.32 182.1C 152.01 181.8 152.72 181.52 153.41 181.23C 154.17 180.91 154.93 180.59 155.7 180.29C 156.55 179.95 157.3999 179.64 158.2599 179.31C 158.89 179.07 159.5099 178.82 160.14 178.59C 161.63 178.04 163.13 177.52 164.64 177.01C 164.64 177.01 164.64 177.01 164.64 177.01C 164.6499 177.01 164.6499 177.01 164.66 177C 165.82 176.61 166.99 176.23 168.15 175.87C 185.32 170.49 203.22 167.76 221.35 167.76C 235.28 167.76 249.17 169.38 262.6299 172.58C 262.6899 172.59 262.7499 172.61 262.8099 172.62C 318.1199 185.85 364.0399 225.21 385.6799 277.94C 385.8099 278.25 385.9599 278.53 386.1199 278.81C 399.8099 311.51 426.2299 338.31 458.7399 352.43C 458.7399 352.43 458.7499 352.43 458.7499 352.43C 459.5799 352.79 460.4899 352.99 461.45 353C 461.4799 353 461.4999 353 461.5299 353C 461.5299 353 461.5299 353 461.5299 353C 461.8399 353 462.1399 352.97 462.4399 352.93C 462.5099 352.92 462.58 352.91 462.6499 352.9C 462.9199 352.86 463.1899 352.8 463.4499 352.72C 463.4799 352.71 463.5099 352.71 463.5399 352.7C 463.8399 352.61 464.1299 352.5 464.4099 352.37C 464.4599 352.35 464.5099 352.32 464.5599 352.3C 464.8199 352.18 465.0699 352.04 465.2999 351.89C 465.3199 351.88 465.3399 351.87 465.3699 351.85C 465.3799 351.84 465.3899 351.84 465.3899 351.83C 465.6099 351.68 465.8299 351.52 466.0299 351.35C 466.0799 351.31 466.1199 351.26 466.1699 351.22C 466.3199 351.09 466.4599 350.95 466.5999 350.8C 466.6599 350.74 466.7199 350.67 466.7699 350.61C 466.8999 350.46 467.0199 350.31 467.1299 350.16C 467.1699 350.1 467.2199 350.05 467.2599 349.99C 467.5599 349.56 467.8199 349.09 468.0199 348.59C 468.0399 348.53 468.0599 348.48 468.0799 348.42C 468.1499 348.2299 468.2199 348.0299 468.2699 347.83C 468.2899 347.7599 468.3099 347.68 468.3299 347.61C 468.3799 347.42 468.4099 347.2199 468.4399 347.02C 468.4499 346.95 468.4599 346.8799 468.4699 346.8C 468.4999 346.53 468.5199 346.2599 468.5199 345.99L468.5199 345.99L468.5199 204.56C 468.5199 204.28 468.4999 204.01 468.4699 203.75C 468.4599 203.68 468.4499 203.61 468.4399 203.53C 468.4099 203.33 468.3699 203.13 468.3299 202.94C 468.3099 202.87 468.2899 202.79 468.2699 202.72C 468.2199 202.52 468.1499 202.32 468.0799 202.13C 468.0599 202.07 468.0399 202.02 468.0199 201.96C 467.8199 201.46 467.5699 200.99 467.2599 200.56C 467.2199 200.5 467.1799 200.45 467.1299 200.39C 467.0099 200.23 466.8899 200.08 466.7699 199.94C 466.7099 199.88 466.6599 199.81 466.5999 199.75C 466.4599 199.6 466.3199 199.47 466.1699 199.33C 466.1199 199.29 466.0799 199.24 466.0299 199.2C 465.8299 199.03 465.6099 198.87 465.3899 198.72C 465.3799 198.71 465.3699 198.71 465.3699 198.7C 465.3399 198.68 465.3099 198.67 465.2799 198.65C 465.0899 198.53 464.8899 198.42 464.6899 198.32C 464.6199 198.29 464.5599 198.26 464.4899 198.23C 464.3099 198.14 464.1199 198.07 463.9199 197.99C 463.8599 197.97 463.7899 197.94 463.7299 197.92C 463.4899 197.84 463.2499 197.77 463.0099 197.72C 462.9899 197.72 462.9799 197.71 462.9599 197.71C 462.6999 197.66 462.4399 197.62 462.1699 197.59C 462.0899 197.58 462.0099 197.58 461.9199 197.58C 461.7899 197.57 461.6499 197.56 461.5199 197.56C 461.4699 197.56 461.4299 197.57 461.3799 197.57C 461.2799 197.57 461.1799 197.58 461.0799 197.59C 460.8999 197.6 460.7299 197.62 460.5499 197.64C 460.4599 197.65 460.3799 197.66 460.2899 197.68C 460.0799 197.72 459.8699 197.77 459.6599 197.82C 459.6099 197.83 459.5699 197.84 459.5199 197.86C 459.2499 197.94 458.9899 198.03 458.7299 198.14C 458.7299 198.14 458.7198 198.14 458.7198 198.14C 430.5798 210.37 407.0099 232.09 392.3098 258.9C 366.9998 208.91 320.6998 172.04 265.8599 158.98C 265.7899 158.96 265.7299 158.95 265.6599 158.94C 264.7599 158.73 263.8599 158.54 262.9598 158.34C 262.0698 158.14 261.1798 157.93 260.2898 157.75C 259.3498 157.56 258.3998 157.39 257.4498 157.21C 256.5698 157.04 255.6798 156.86 254.7998 156.7C 253.8098 156.53 252.8098 156.38 251.8198 156.22C 250.9698 156.08 250.1298 155.94 249.2798 155.81C 248.2498 155.66 247.2098 155.54 246.1798 155.4C 245.3598 155.29 244.5398 155.17 243.7198 155.08C 242.6398 154.95 241.5598 154.86 240.4698 154.75C 239.6898 154.67 238.9198 154.58 238.1398 154.51C 237.0298 154.41 235.9098 154.34 234.7998 154.27C 234.0498 154.22 233.2998 154.15 232.5398 154.11C 231.3298 154.0399 230.1198 154 228.9198 153.95C 228.2598 153.92 227.5998 153.8799 226.9298 153.86C 225.0598 153.81 223.1898 153.78 221.3098 153.78C 219.6599 153.78 218.0098 153.81 216.3698 153.85C 215.9698 153.86 215.5698 153.87 215.1598 153.88C 213.5198 153.93 211.8898 154 210.2598 154.09C 210.1698 154.1 210.0798 154.1 209.9898 154.11C 208.4298 154.2 206.8798 154.32 205.3298 154.44C 204.9298 154.47 204.5298 154.51 204.1298 154.54C 202.5098 154.68 200.8998 154.84 199.2898 155.03C 199.1198 155.05 198.9498 155.07 198.7898 155.09C 197.3098 155.26 195.8398 155.46 194.3698 155.66C 193.9698 155.72 193.5798 155.77 193.1798 155.83C 191.5898 156.06 189.9998 156.31 188.4198 156.59C 188.1898 156.63 187.9598 156.68 187.7198 156.72C 186.3199 156.97 184.9198 157.23 183.5199 157.51C 183.1199 157.59 182.7198 157.67 182.3298 157.75C 180.7699 158.07 179.2099 158.41 177.6599 158.77C 177.5798 158.79 177.5099 158.8 177.4299 158.82C 185.3699 140.62 204.0999 107.13 238.7899 92.45999C 237.5999 102.03 236.6699 116.11 238.7099 130.22C 239.2599 134.05 242.8199 136.71 246.6398 136.15C 250.4698 135.6 253.1198 132.05 252.5698 128.22C 249.4198 106.41 254.3798 83.72998 254.4298 83.50999C 254.9698 81.09998 254.1998 78.58999 252.4198 76.89999C 250.6299 75.20998 248.0798 74.57999 245.7098 75.23998C 218.9398 82.75998 195.4998 101.1 177.9098 128.26C 168.0898 143.43 162.6698 157.3 160.4698 163.65C 160.3598 163.69 160.2498 163.72 160.1398 163.76C 107.4698 181.49 65.13983 221.18 44.01983 272.65C 43.92983 272.87 43.84983 273.09 43.78983 273.31C 43.74983 273.45 43.71983 273.6 43.67983 273.74C 43.65983 273.8199 43.63983 273.89 43.61983 273.97C 43.58983 274.15 43.55983 274.32 43.53983 274.5C 43.52983 274.55 43.51982 274.6 43.51982 274.65C 43.49982 274.83 43.49982 275.0099 43.48983 275.19C 43.48983 275.24 43.47983 275.28 43.47983 275.33C 43.49983 275.49 43.50983 275.65 43.52983 275.82L43.52983 275.82L43.53 275.82zM454.5 215.77L454.5 334.82C 430.38 321.66 410.86 300.51 399.8 275.3C 410.85 250.09 430.37 228.93 454.5 215.77z" stroke="none" fill="#FFFFFF" fill-rule="nonzero" />
    <path transform="matrix(0.0703125 0 0 0.0703125 0 0)"  d="M192.02 223.02C 192.95 223.02 193.9 222.83 194.81 222.44C 197.44 221.29 199.02 218.72 199.02 216.02C 199.02 215.09 198.83 214.14 198.44 213.23L198.44 213.23L197.64 211.38C 196.1 207.84 191.97 206.21 188.43 207.75C 185.8 208.9 184.22 211.47 184.22 214.17C 184.22 215.1 184.41 216.05 184.8 216.96L184.8 216.96L185.6 218.81C 186.74 221.45 189.32 223.02 192.02 223.02z" stroke="none" fill="#FFFFFF" fill-rule="nonzero" />
    <path transform="matrix(0.0703125 0 0 0.0703125 0 0)"  d="M281.72 341.03C 283.09 342.4 284.88 343.08 286.67 343.08C 288.46 343.08 290.25 342.4 291.62 341.03C 306.77 325.88 306.77 301.23 291.62 286.08C 288.89 283.35 284.45 283.35 281.72 286.08C 278.99 288.81 278.99 293.25 281.72 295.98C 291.41 305.67 291.41 321.44 281.72 331.14C 278.99 333.87 278.99 338.3 281.72 341.03z" stroke="none" fill="#FFFFFF" fill-rule="nonzero" />
    <path transform="matrix(0.0703125 0 0 0.0703125 0 0)"  d="M329.82 306.67C 331.19 308.04 332.98 308.72 334.77 308.72C 336.56 308.72 338.35 308.04 339.72 306.67C 347.06 299.33 351.11 289.57 351.11 279.19C 351.11 268.82 347.07 259.06 339.72 251.71C 336.99 248.98 332.55 248.98 329.82 251.71C 327.09 254.44 327.09 258.88 329.82 261.61C 339.51 271.3 339.51 287.07 329.82 296.77C 327.08 299.5 327.08 303.93 329.82 306.67z" stroke="none" fill="#FFFFFF" fill-rule="nonzero" />
    <path transform="matrix(0.0703125 0 0 0.0703125 0 0)"  d="M233.32 268.41C 234.69 269.78 236.48 270.46 238.27 270.46C 240.06 270.46 241.85 269.78 243.22 268.41C 250.56 261.07 254.61 251.31 254.61 240.93C 254.61 230.55 250.57 220.8 243.22 213.45C 240.49 210.72 236.05 210.72 233.32 213.45C 230.59 216.18 230.59 220.62 233.32 223.35C 238.02 228.05 240.61 234.29 240.61 240.93C 240.61 247.56 238.02 253.81 233.32 258.51C 230.59 261.25 230.59 265.68 233.32 268.41z" stroke="none" fill="#FFFFFF" fill-rule="nonzero" />
    <path transform="matrix(0.0703125 0 0 0.0703125 0 0)"  d="M221.8 371.67C 223.17 373.04 224.96 373.72 226.75 373.72C 228.54 373.72 230.33 373.04 231.7 371.67C 239.04 364.33 243.09 354.57 243.09 344.19C 243.09 333.81 239.05 324.06 231.7 316.71C 228.97 313.98 224.53 313.98 221.8 316.71C 219.07 319.44 219.07 323.88 221.8 326.61C 231.49 336.3 231.49 352.07 221.8 361.77C 219.07 364.5 219.07 368.93 221.8 371.67z" stroke="none" fill="#FFFFFF" fill-rule="nonzero" />
    <path transform="matrix(0.0703125 0 0 0.0703125 0 0)"  d="M280.08 254.57C 281.45 255.94 283.24 256.62 285.03 256.62C 286.82 256.62 288.61 255.94 289.98 254.57C 297.32 247.23 301.37 237.47 301.37 227.09C 301.37 216.71 297.33 206.96 289.98 199.61C 287.25 196.88 282.81 196.88 280.08 199.61C 277.35 202.34 277.35 206.78 280.08 209.51C 284.78 214.21 287.37 220.45 287.37 227.09C 287.37 233.73 284.78 239.97 280.08 244.67C 277.35 247.4 277.35 251.83 280.08 254.57z" stroke="none" fill="#FFFFFF" fill-rule="nonzero" />
    <path transform="matrix(0.0703125 0 0 0.0703125 0 0)"  d="M107.59 341.99C 107.34 341.61 107.04 341.25 106.72 340.93C 105.42 339.63 103.62 338.88 101.77 338.88C 99.93 338.88 98.12 339.63 96.82 340.93C 96.5 341.25 96.21 341.61 95.95 341.99C 95.7 342.37 95.48 342.78 95.31 343.2C 95.13 343.62 95 344.06 94.91 344.51C 94.82 344.96 94.77 345.42 94.77 345.88C 94.77 347.72 95.52 349.52 96.82 350.83C 97.15 351.15 97.5 351.44 97.89 351.7C 98.27 351.95 98.67 352.17 99.1 352.34C 99.52 352.52 99.96 352.65 100.4 352.74C 100.86 352.83 101.32 352.88 101.77 352.88C 102.23 352.88 102.69 352.83 103.14 352.74C 103.59 352.65 104.03 352.52 104.45 352.34C 104.87 352.17 105.28 351.95 105.66 351.7C 106.04 351.44 106.4 351.15 106.72 350.83C 108.03 349.52 108.77 347.72 108.77 345.88C 108.77 345.42 108.73 344.96 108.64 344.51C 108.55 344.06 108.41 343.62 108.24 343.2C 108.06 342.78 107.84 342.37 107.59 341.99z" stroke="none" fill="#FFFFFF" fill-rule="nonzero" />
    <path transform="matrix(0.0703125 0 0 0.0703125 0 0)"  d="M380.11 312.45C 382.28 309.25 381.44 304.9 378.23 302.73C 375.03 300.56 370.68 301.4 368.51 304.61C 335.39 353.58 280.36 382.82 221.31 382.82C 218.59 382.82 215.75 382.75 212.89 382.62C 212.89 382.62 212.89 382.62 212.89 382.62C 200.79 382.06 188.8 380.26 177.11 377.27C 176.34 377.07 175.57 376.85 174.8 376.64C 198.13 348.08 210.86 312.51 210.86 275.31C 210.86 263.59 209.59 251.89 207.08 240.54C 206.25 236.77 202.51 234.39 198.73 235.22C 194.96 236.05 192.57 239.79 193.41 243.57C 195.7 253.93 196.86 264.61 196.86 275.32C 196.86 311.15 183.91 345.33 160.32 372.07C 148.35 367.7 136.85 362.03 126.07 355.17C 122.81 353.09 118.48 354.06 116.41 357.32C 114.33 360.58 115.3 364.91 118.56 366.98C 131.03 374.92 144.41 381.37 158.27 386.2C 162.86 395.15 179.27 421.4 219.8 436.6C 220.6 436.9 221.43 437.05 222.26 437.05C 224.03 437.05 225.77 436.38 227.09 435.12C 229.03 433.27 229.75 430.47 228.93 427.91C 228.87 427.73 224.04 412.6 220.93 396.84C 221.06 396.84 221.19 396.84 221.31 396.84C 285.02 396.81 344.38 365.28 380.11 312.45zM178.96 392.1C 179.22 392.16 179.47 392.21 179.73 392.27C 179.99 392.33 180.25 392.38 180.51 392.44C 182.41 392.85 184.31 393.24 186.22 393.59C 186.42 393.63 186.61 393.66 186.81 393.69C 188.8 394.05 190.79 394.39 192.79 394.69C 192.84 394.7 192.88 394.7 192.93 394.71C 194.96 395.01 196.99 395.28 199.03 395.52C 199.14 395.53 199.26 395.55 199.37 395.56C 201.35 395.79 203.34 395.98 205.33 396.14C 205.55 396.16 205.77 396.18 205.99 396.2C 206.19 396.22 206.39 396.24 206.58 396.25C 207.95 403.85 209.77 411.4 211.41 417.6C 195.63 409.53 185.35 399.88 178.96 392.1z" stroke="none" fill="#FFFFFF" fill-rule="nonzero" />
    <path transform="matrix(0.0703125 0 0 0.0703125 0 0)"  d="M137.8 278.3C 153.62 278.3 166.48 265.43 166.48 249.62C 166.48 233.81 153.61 220.94 137.8 220.94C 121.99 220.94 109.12 233.81 109.12 249.62C 109.12 265.43 121.99 278.3 137.8 278.3zM137.8 234.94C 145.9 234.94 152.48 241.53 152.48 249.62C 152.48 257.71 145.89 264.3 137.8 264.3C 129.71 264.3 123.12 257.71 123.12 249.62C 123.12 241.53 129.71 234.94 137.8 234.94z" stroke="none" fill="#FFFFFF" fill-rule="nonzero" />
</g>
</svg>