<svg width="24" height="32" viewBox="0 0 24 32" xmlns="http://www.w3.org/2000/svg">
<path d="M22.8213 14.9325C22.1041 14.369 21.1565 14.1641 20.1319 14.3434C19.9014 14.3946 19.6965 14.4714 19.5172 14.5483V13.9592C19.5172 13.1652 19.5172 12.3711 19.5172 11.5771C19.5172 11.2186 19.4404 10.9624 19.2611 10.7831C19.0818 10.6038 18.8257 10.5014 18.4415 10.5014C14.3946 10.5014 10.3477 10.5014 6.30084 10.5014H1.10136C0.332968 10.5014 0 10.8344 0 11.6028C0 12.1406 0.0256163 12.6529 0.0512294 13.1652C0.102456 13.8311 0.17929 14.497 0.230517 15.163C0.358582 16.8534 0.512263 18.5951 0.768394 20.2856C1.1782 23.0518 1.9466 25.6388 3.07358 27.9952C3.79075 29.4551 4.78966 30.7102 6.12154 31.8371L6.19838 31.8884H13.3188L13.3957 31.8115C13.5237 31.7091 13.6518 31.581 13.7799 31.4786C14.0616 31.2224 14.369 30.9663 14.6251 30.6845C16.1875 28.866 17.0071 26.6889 17.5706 24.7935C17.7755 24.102 18.1597 23.6153 18.8 23.2823C19.3123 23.0006 19.8246 22.7445 20.3624 22.4883L21.0028 22.1554C23.0262 21.1052 24.0251 19.5172 23.9995 17.4169C23.9483 16.3924 23.5385 15.5216 22.8213 14.9325ZM17.5706 14.5739C17.2889 18.2109 16.7254 21.387 15.8033 24.3069C15.3167 25.8693 14.6507 27.6878 13.4725 29.199C13.0627 29.7369 12.6017 30.0698 11.8333 30.0698C11.0137 30.0186 10.1684 30.0442 9.37441 30.0698C8.73408 30.0954 8.09375 30.0954 7.45343 30.0954C7.17168 30.0954 6.78748 29.9418 6.55697 29.7369C5.04579 28.3794 4.32862 26.5352 3.76514 24.896C2.68938 21.7199 2.07466 18.2109 1.92099 14.1385C1.89537 13.6774 1.92099 12.781 1.92099 12.3711L9.09267 12.3968C9.24634 13.1652 9.75861 15.5984 10.0147 16.8791C9.5537 16.9303 9.24634 16.9559 8.91337 17.0071C7.94007 17.1096 7.35097 17.7243 7.42781 18.6976C7.50465 19.9783 7.65833 21.2589 7.86324 22.5396C8.01692 23.436 8.68286 23.8971 9.60493 23.8202C10.8087 23.6922 12.0126 23.5641 13.2164 23.4104C14.1385 23.308 14.7019 22.5652 14.5995 21.6431C14.4714 20.4393 14.3434 19.2355 14.1897 18.0317C14.0872 17.1608 13.4725 16.6229 12.6017 16.6485C12.1662 16.6485 11.7308 16.6998 11.321 16.7254C11.0649 15.291 10.8088 13.8823 10.5526 12.3968L17.5962 12.4224C17.5962 12.8578 17.6218 13.9592 17.5706 14.5739ZM12.4992 17.9036C12.6273 17.9036 12.8578 18.1853 12.909 18.3646C13.0627 19.3379 13.1395 20.3112 13.2676 21.3614C13.4213 21.8224 13.1908 22.0273 12.6529 22.0785C11.6796 22.1554 10.7063 22.2834 9.733 22.4115C9.3488 22.4627 9.16951 22.3347 9.11828 21.9505C8.99022 20.8747 8.86215 19.799 8.7597 18.7232C8.7597 18.5951 8.91337 18.3134 9.04144 18.3134C10.1684 18.1597 11.321 18.006 12.4992 17.9036ZM20.9259 20.0039C20.3112 20.4137 19.6709 20.7466 18.9793 21.1052C18.8 21.2077 18.6464 21.2845 18.4671 21.387C18.6208 20.4905 18.7744 19.6965 18.9025 18.8769C18.9537 18.5183 19.0306 18.1853 19.0818 17.8267L19.1074 17.6475C19.2611 16.751 19.9783 16.1363 20.8747 16.1363C20.9259 16.1363 20.9516 16.1363 21.0028 16.1363C21.5663 16.1619 22.0273 16.6229 22.0785 17.1608C22.2066 18.4927 21.8224 19.4148 20.9259 20.0039ZM7.24852 8.88776C7.65833 8.88776 7.91446 8.63163 7.91446 8.22182C7.86323 6.60819 8.86215 5.58367 9.96351 4.61037C11.0905 3.63707 11.6796 2.43325 11.6796 0.947686C11.6796 0.640329 11.5003 0.307358 11.3978 0C11.1929 0 10.988 0 10.7831 0C10.6551 0.281745 10.4502 0.563489 10.4246 0.870847C10.3477 2.04905 9.86106 2.99674 8.9646 3.73952C8.5804 4.07249 8.19621 4.43107 7.86324 4.81527C6.99239 5.76296 6.60819 6.91555 6.6338 8.19621C6.60819 8.63163 6.83871 8.88776 7.24852 8.88776ZM10.3733 8.50356C10.3221 9.11828 10.5782 9.52809 11.0137 9.52809C11.5771 9.52809 11.6284 9.09267 11.7564 8.65724C11.8845 8.17059 12.1406 7.68394 12.4224 7.24852C12.6529 6.88994 13.0115 6.6338 13.3188 6.32645C13.9079 5.73734 14.1897 4.99456 14.2153 4.17494C14.2409 3.71391 14.2665 3.25287 13.6518 3.20164C13.0371 3.15042 12.9346 3.61145 12.909 4.0981C12.8578 4.73843 12.5761 5.25069 12.0638 5.68612C11.1673 6.4289 10.4502 7.27413 10.3733 8.50356Z" fill="white"/>
</svg>