<svg xmlns="http://www.w3.org/2000/svg" viewBox="0 0 28 28" width="28" height="28">
	<style>
		tspan { white-space:pre }
		.shp0 { fill: #ffffff } 
	</style>
	<g id="Layer">
		<g id="Layer">
			<path id="Layer" class="shp0" d="M27.89 15.97C27.89 15.95 27.89 15.93 27.89 15.92L26.49 6.15C26.46 5.99 26.36 5.84 26.22 5.76C26.07 5.67 25.9 5.66 25.74 5.72L19.28 8.32C19 8.43 18.86 8.75 18.98 9.03C19.09 9.31 19.41 9.45 19.69 9.33L25.5 7L26.8 16.01C26.8 16.03 26.8 16.06 26.8 16.08C27.09 17.75 26.78 19.48 25.93 20.94C24.96 22.63 23.38 23.84 21.5 24.34C19.61 24.84 17.64 24.58 15.95 23.6C15.93 23.59 15.92 23.59 15.91 23.58C16.27 23.31 16.62 23.01 16.93 22.69L23.34 20.97C23.63 20.9 23.8 20.6 23.72 20.3C23.64 20.01 23.34 19.84 23.05 19.92L18.13 21.24C18.67 20.43 19.09 19.54 19.38 18.59L23.78 17.42C24.07 17.34 24.24 17.04 24.16 16.75C24.08 16.45 23.78 16.28 23.49 16.36L20.26 17.23L21.48 15.12L24.05 14.43C24.34 14.35 24.51 14.05 24.43 13.76C24.35 13.47 24.05 13.3 23.76 13.37L22.25 13.78L23.41 11.76C23.56 11.5 23.47 11.17 23.21 11.02C22.95 10.87 22.62 10.96 22.47 11.22L21.3 13.23L20.9 11.72C20.82 11.43 20.52 11.25 20.23 11.33C19.93 11.41 19.76 11.71 19.84 12L20.53 14.57L19.82 15.8C19.84 14.05 19.39 12.32 18.49 10.77C17.36 8.81 15.58 7.29 13.47 6.48C13.46 6.48 13.46 6.48 13.45 6.48L10.98 5.48C10.7 5.36 10.38 5.5 10.27 5.78C10.15 6.06 10.29 6.38 10.57 6.49L13.02 7.48C13.03 7.49 13.04 7.49 13.06 7.5C14.94 8.21 16.54 9.57 17.54 11.32C18.72 13.35 19.03 15.72 18.42 17.99C17.85 20.09 16.57 21.86 14.77 23.05L13.85 21.46L15.84 14.04C15.92 13.74 15.75 13.44 15.45 13.37C15.16 13.29 14.86 13.46 14.78 13.75L13.08 20.12L11.05 16.62L12.43 11.46C12.51 11.17 12.34 10.87 12.05 10.79C11.75 10.72 11.45 10.89 11.38 11.18L10.28 15.28L8.68 12.51L9.51 9.41C9.59 9.12 9.42 8.82 9.13 8.74C8.84 8.66 8.54 8.83 8.46 9.13L7.91 11.17L6.4 8.55C6.25 8.29 5.91 8.2 5.65 8.35C5.39 8.5 5.3 8.84 5.45 9.1L6.96 11.72L4.92 11.17C4.62 11.09 4.32 11.27 4.25 11.56C4.17 11.85 4.34 12.15 4.63 12.23L7.74 13.06L9.33 15.82L5.24 14.73C4.94 14.65 4.64 14.82 4.57 15.11C4.49 15.4 4.66 15.7 4.95 15.78L10.11 17.16L12.13 20.67L5.76 18.96C5.47 18.89 5.17 19.06 5.09 19.35C5.01 19.64 5.19 19.94 5.48 20.02L12.9 22.01L13.82 23.6C9.69 25.66 4.6 24.18 2.27 20.14C1.25 18.37 0.88 16.29 1.22 14.28C1.22 14.25 1.22 14.23 1.22 14.2L2.79 3.33L6.41 4.8C6.69 4.92 7.01 4.78 7.12 4.5C7.24 4.22 7.1 3.9 6.82 3.79L2.55 2.05C2.39 1.99 2.22 2 2.07 2.09C1.93 2.17 1.83 2.32 1.8 2.48L0.13 14.11C0.13 14.13 0.13 14.15 0.13 14.17C-0.24 16.41 0.19 18.72 1.32 20.68C3.15 23.85 6.48 25.62 9.9 25.62C11.41 25.62 12.94 25.27 14.37 24.55L15.04 25.71C15.14 25.89 15.33 25.99 15.51 25.99C15.61 25.99 15.7 25.96 15.79 25.91C16.05 25.76 16.14 25.43 15.99 25.17L15.74 24.73C16.95 25.36 18.27 25.68 19.6 25.68C20.33 25.68 21.06 25.59 21.78 25.39C23.95 24.82 25.76 23.43 26.88 21.49C27.84 19.82 28.2 17.86 27.89 15.97Z" />
		</g>
	</g>
	<g id="Layer">
		<g id="Layer">
			<path id="Layer" class="shp0" d="M9.04 4.73C8.94 4.63 8.79 4.57 8.65 4.57C8.51 4.57 8.37 4.63 8.26 4.73C8.16 4.84 8.1 4.98 8.1 5.12C8.1 5.26 8.16 5.41 8.26 5.51C8.37 5.61 8.51 5.67 8.65 5.67C8.79 5.67 8.94 5.61 9.04 5.51C9.14 5.41 9.2 5.26 9.2 5.12C9.2 4.98 9.14 4.84 9.04 4.73Z" />
		</g>
	</g>
	<g id="Layer">
		<g id="Layer">
			<path id="Layer" class="shp0" d="M24.27 9.54L24.27 9.53C24.09 9.29 23.75 9.23 23.51 9.41C23.26 9.59 23.21 9.93 23.39 10.17L23.39 10.18C23.5 10.33 23.66 10.4 23.83 10.4C23.94 10.4 24.06 10.37 24.15 10.3C24.4 10.12 24.45 9.78 24.27 9.54Z" />
		</g>
	</g>
	<g id="Layer">
	</g>
	<g id="Layer">
	</g>
	<g id="Layer">
	</g>
	<g id="Layer">
	</g>
	<g id="Layer">
	</g>
	<g id="Layer">
	</g>
	<g id="Layer">
	</g>
	<g id="Layer">
	</g>
	<g id="Layer">
	</g>
	<g id="Layer">
	</g>
	<g id="Layer">
	</g>
	<g id="Layer">
	</g>
	<g id="Layer">
	</g>
	<g id="Layer">
	</g>
	<g id="Layer">
	</g>
</svg>